<?xml version="1.0" encoding="UTF-8" standalone="no"?>
<!DOCTYPE svg PUBLIC "-//W3C//DTD SVG 1.1//EN"
"http://www.w3.org/Graphics/SVG/1.1/DTD/svg11.dtd">


<!-- Page 1 -->
<svg x="0" y="0" width="935" height="1210" viewBox="0 0 935 1210" version="1.1" xmlns="http://www.w3.org/2000/svg" xmlns:xlink="http://www.w3.org/1999/xlink"
style="display: block;margin-left: auto;margin-right: auto;">
<defs>
<clipPath id="c_1"><path d="M0,0H935V1210H0Z"/></clipPath>
<style type="text/css"><![CDATA[
text { white-space: pre; }
path, image { pointer-events: none; }
text::-moz-selection {
	color: transparent;
	background: rgba(0, 106, 173, 0.4);
}
text::selection {
	color: transparent;
	background: rgba(0, 106, 173, 0.4);
}

.s1{
font-size: 18.26px;
font-family: CMSS12_4;
fill: TRANSPARENT;
}
.s2{
font-size: 15.22px;
font-family: LCIRCLE10_5;
fill: TRANSPARENT;
}
.s3{
font-size: 15.22px;
font-family: CMSS10_6;
fill: TRANSPARENT;
}
.s4{
font-size: 10.65px;
font-family: CMSS8_7;
fill: TRANSPARENT;
}
.s5{
font-size: 7.61px;
font-family: CMSS8_7;
fill: TRANSPARENT;
}

.g0{
fill: #CCCCCC;
}
.g1{
fill: #B3B3B3;
}
.g2{
fill: #B5D091;
}
.g3{
fill: none;
stroke: #000000;
stroke-width: 1.521;
stroke-linecap: butt;
stroke-linejoin: miter;
}

]]></style>

</defs>
<g clip-path="url(#c_1)">
<path d="M0,0
L0,1210
L935,1210
L935,0 Z " 
fill="#FFFFFF" stroke="none"/>
<path d="M110,1094.3H231.3V130.7H110v963.6Z" class="g0"/>
<path d="M110,184.8H837.6V130.7H110v54.1Z" class="g0"/>
<path d="M110,249.8H231.3v-65H110v65Z" class="g1"/>
<g fill="#000000" >
<use xlink:href="#f0_2" transform="matrix(12,0,0,12,120.3,222)" />
<use xlink:href="#f0_a" transform="matrix(12,0,0,12,129.2,222)" />
<use xlink:href="#f0_c" transform="matrix(12,0,0,12,138.2,222)" />
<use xlink:href="#f0_2" transform="matrix(12,0,0,12,143.1,222)" />
<use xlink:href="#f0_2" transform="matrix(12,0,0,12,152.1,222)" />
<use xlink:href="#f0_1" transform="matrix(12,0,0,12,167,222)" />
<use xlink:href="#f0_2" transform="matrix(12,0,0,12,178.9,222)" />
<use xlink:href="#f0_b" transform="matrix(12,0,0,12,187.9,222)" />
<use xlink:href="#f0_c" transform="matrix(12,0,0,12,196.8,222)" />
<use xlink:href="#f0_2" transform="matrix(12,0,0,12,201.8,222)" />
<use xlink:href="#f0_2" transform="matrix(12,0,0,12,210.7,222)" />
<use xlink:href="#f0_2" transform="matrix(12,0,0,12,120.3,287)" />
</g>
<text x="120" y="222" dx="0,0,0,0,0,0,1.4,0,1.4,0,0,0,0" class="s1">08:00 - 09:00</text>
<g fill="#000000" >
<use xlink:href="#f0_b" transform="matrix(12,0,0,12,129.2,287)" />
<use xlink:href="#f0_c" transform="matrix(12,0,0,12,138.2,287)" />
<use xlink:href="#f0_2" transform="matrix(12,0,0,12,143.1,287)" />
<use xlink:href="#f0_2" transform="matrix(12,0,0,12,152.1,287)" />
<use xlink:href="#f0_1" transform="matrix(12,0,0,12,167,287)" />
<use xlink:href="#f0_3" transform="matrix(12,0,0,12,178.9,287)" />
<use xlink:href="#f0_2" transform="matrix(12,0,0,12,187.9,287)" />
<use xlink:href="#f0_c" transform="matrix(12,0,0,12,196.8,287)" />
<use xlink:href="#f0_2" transform="matrix(12,0,0,12,201.8,287)" />
<use xlink:href="#f0_2" transform="matrix(12,0,0,12,210.7,287)" />
</g>
<text x="120" y="286" dx="0,0,0,0,0,0,1.4,0,1.4,0,0,0,0" class="s1">09:00 - 10:00</text>
<path d="M110,379.7H231.3V314.8H110v64.9Z" class="g1"/>
<g fill="#000000" >
<use xlink:href="#f0_3" transform="matrix(12,0,0,12,120.3,351.9)" />
<use xlink:href="#f0_2" transform="matrix(12,0,0,12,129.2,351.9)" />
<use xlink:href="#f0_c" transform="matrix(12,0,0,12,138.2,351.9)" />
<use xlink:href="#f0_2" transform="matrix(12,0,0,12,143.1,351.9)" />
<use xlink:href="#f0_2" transform="matrix(12,0,0,12,152.1,351.9)" />
<use xlink:href="#f0_1" transform="matrix(12,0,0,12,167,351.9)" />
<use xlink:href="#f0_3" transform="matrix(12,0,0,12,178.9,351.9)" />
<use xlink:href="#f0_3" transform="matrix(12,0,0,12,187.9,351.9)" />
<use xlink:href="#f0_c" transform="matrix(12,0,0,12,196.8,351.9)" />
<use xlink:href="#f0_2" transform="matrix(12,0,0,12,201.8,351.9)" />
<use xlink:href="#f0_2" transform="matrix(12,0,0,12,210.7,351.9)" />
<use xlink:href="#f0_3" transform="matrix(12,0,0,12,120.3,416.9)" />
</g>
<text x="120" y="351" dx="0,0,0,0,0,0,1.4,0,1.4,0,0,0,0" class="s1">10:00 - 11:00</text>
<g fill="#000000" >
<use xlink:href="#f0_3" transform="matrix(12,0,0,12,129.2,416.9)" />
<use xlink:href="#f0_c" transform="matrix(12,0,0,12,138.2,416.9)" />
<use xlink:href="#f0_2" transform="matrix(12,0,0,12,143.1,416.9)" />
<use xlink:href="#f0_2" transform="matrix(12,0,0,12,152.1,416.9)" />
<use xlink:href="#f0_1" transform="matrix(12,0,0,12,167,416.9)" />
<use xlink:href="#f0_3" transform="matrix(12,0,0,12,178.9,416.9)" />
<use xlink:href="#f0_4" transform="matrix(12,0,0,12,187.9,416.9)" />
<use xlink:href="#f0_c" transform="matrix(12,0,0,12,196.8,416.9)" />
<use xlink:href="#f0_2" transform="matrix(12,0,0,12,201.8,416.9)" />
<use xlink:href="#f0_2" transform="matrix(12,0,0,12,210.7,416.9)" />
</g>
<text x="120" y="416" dx="0,0,0,0,0,0,1.4,0,1.4,0,0,0,0" class="s1">11:00 - 12:00</text>
<path d="M110,509.6H231.3V444.7H110v64.9Z" class="g1"/>
<g fill="#000000" >
<use xlink:href="#f0_3" transform="matrix(12,0,0,12,120.3,481.9)" />
<use xlink:href="#f0_4" transform="matrix(12,0,0,12,129.2,481.9)" />
<use xlink:href="#f0_c" transform="matrix(12,0,0,12,138.2,481.9)" />
<use xlink:href="#f0_2" transform="matrix(12,0,0,12,143.1,481.9)" />
<use xlink:href="#f0_2" transform="matrix(12,0,0,12,152.1,481.9)" />
<use xlink:href="#f0_1" transform="matrix(12,0,0,12,167,481.9)" />
<use xlink:href="#f0_3" transform="matrix(12,0,0,12,178.9,481.9)" />
<use xlink:href="#f0_5" transform="matrix(12,0,0,12,187.9,481.9)" />
<use xlink:href="#f0_c" transform="matrix(12,0,0,12,196.8,481.9)" />
<use xlink:href="#f0_2" transform="matrix(12,0,0,12,201.8,481.9)" />
<use xlink:href="#f0_2" transform="matrix(12,0,0,12,210.7,481.9)" />
<use xlink:href="#f0_3" transform="matrix(12,0,0,12,120.3,546.8)" />
</g>
<text x="120" y="481" dx="0,0,0,0,0,0,1.4,0,1.4,0,0,0,0" class="s1">12:00 - 13:00</text>
<g fill="#000000" >
<use xlink:href="#f0_5" transform="matrix(12,0,0,12,129.2,546.8)" />
<use xlink:href="#f0_c" transform="matrix(12,0,0,12,138.2,546.8)" />
<use xlink:href="#f0_2" transform="matrix(12,0,0,12,143.1,546.8)" />
<use xlink:href="#f0_2" transform="matrix(12,0,0,12,152.1,546.8)" />
<use xlink:href="#f0_1" transform="matrix(12,0,0,12,167,546.8)" />
<use xlink:href="#f0_3" transform="matrix(12,0,0,12,178.9,546.8)" />
<use xlink:href="#f0_6" transform="matrix(12,0,0,12,187.9,546.8)" />
<use xlink:href="#f0_c" transform="matrix(12,0,0,12,196.8,546.8)" />
<use xlink:href="#f0_2" transform="matrix(12,0,0,12,201.8,546.8)" />
<use xlink:href="#f0_2" transform="matrix(12,0,0,12,210.7,546.8)" />
</g>
<text x="120" y="546" dx="0,0,0,0,0,0,1.4,0,1.4,0,0,0,0" class="s1">13:00 - 14:00</text>
<path d="M110,639.6H231.3v-65H110v65Z" class="g1"/>
<g fill="#000000" >
<use xlink:href="#f0_3" transform="matrix(12,0,0,12,120.3,611.8)" />
<use xlink:href="#f0_6" transform="matrix(12,0,0,12,129.2,611.8)" />
<use xlink:href="#f0_c" transform="matrix(12,0,0,12,138.2,611.8)" />
<use xlink:href="#f0_2" transform="matrix(12,0,0,12,143.1,611.8)" />
<use xlink:href="#f0_2" transform="matrix(12,0,0,12,152.1,611.8)" />
<use xlink:href="#f0_1" transform="matrix(12,0,0,12,167,611.8)" />
<use xlink:href="#f0_3" transform="matrix(12,0,0,12,178.9,611.8)" />
<use xlink:href="#f0_7" transform="matrix(12,0,0,12,187.9,611.8)" />
<use xlink:href="#f0_c" transform="matrix(12,0,0,12,196.8,611.8)" />
<use xlink:href="#f0_2" transform="matrix(12,0,0,12,201.8,611.8)" />
<use xlink:href="#f0_2" transform="matrix(12,0,0,12,210.7,611.8)" />
<use xlink:href="#f0_3" transform="matrix(12,0,0,12,120.3,676.7)" />
</g>
<text x="120" y="611" dx="0,0,0,0,0,0,1.4,0,1.4,0,0,0,0" class="s1">14:00 - 15:00</text>
<g fill="#000000" >
<use xlink:href="#f0_7" transform="matrix(12,0,0,12,129.2,676.7)" />
<use xlink:href="#f0_c" transform="matrix(12,0,0,12,138.2,676.7)" />
<use xlink:href="#f0_2" transform="matrix(12,0,0,12,143.1,676.7)" />
<use xlink:href="#f0_2" transform="matrix(12,0,0,12,152.1,676.7)" />
<use xlink:href="#f0_1" transform="matrix(12,0,0,12,167,676.7)" />
<use xlink:href="#f0_3" transform="matrix(12,0,0,12,178.9,676.7)" />
<use xlink:href="#f0_8" transform="matrix(12,0,0,12,187.9,676.7)" />
<use xlink:href="#f0_c" transform="matrix(12,0,0,12,196.8,676.7)" />
<use xlink:href="#f0_2" transform="matrix(12,0,0,12,201.8,676.7)" />
<use xlink:href="#f0_2" transform="matrix(12,0,0,12,210.7,676.7)" />
</g>
<text x="120" y="676" dx="0,0,0,0,0,0,1.4,0,1.4,0,0,0,0" class="s1">15:00 - 16:00</text>
<path d="M110,769.5H231.3v-65H110v65Z" class="g1"/>
<g fill="#000000" >
<use xlink:href="#f0_3" transform="matrix(12,0,0,12,120.3,741.7)" />
<use xlink:href="#f0_8" transform="matrix(12,0,0,12,129.2,741.7)" />
<use xlink:href="#f0_c" transform="matrix(12,0,0,12,138.2,741.7)" />
<use xlink:href="#f0_2" transform="matrix(12,0,0,12,143.1,741.7)" />
<use xlink:href="#f0_2" transform="matrix(12,0,0,12,152.1,741.7)" />
<use xlink:href="#f0_1" transform="matrix(12,0,0,12,167,741.7)" />
<use xlink:href="#f0_3" transform="matrix(12,0,0,12,178.9,741.7)" />
<use xlink:href="#f0_9" transform="matrix(12,0,0,12,187.9,741.7)" />
<use xlink:href="#f0_c" transform="matrix(12,0,0,12,196.8,741.7)" />
<use xlink:href="#f0_2" transform="matrix(12,0,0,12,201.8,741.7)" />
<use xlink:href="#f0_2" transform="matrix(12,0,0,12,210.7,741.7)" />
<use xlink:href="#f0_3" transform="matrix(12,0,0,12,120.3,806.7)" />
</g>
<text x="120" y="741" dx="0,0,0,0,0,0,1.4,0,1.4,0,0,0,0" class="s1">16:00 - 17:00</text>
<g fill="#000000" >
<use xlink:href="#f0_9" transform="matrix(12,0,0,12,129.2,806.7)" />
<use xlink:href="#f0_c" transform="matrix(12,0,0,12,138.2,806.7)" />
<use xlink:href="#f0_2" transform="matrix(12,0,0,12,143.1,806.7)" />
<use xlink:href="#f0_2" transform="matrix(12,0,0,12,152.1,806.7)" />
<use xlink:href="#f0_1" transform="matrix(12,0,0,12,167,806.7)" />
<use xlink:href="#f0_3" transform="matrix(12,0,0,12,178.9,806.7)" />
<use xlink:href="#f0_a" transform="matrix(12,0,0,12,187.9,806.7)" />
<use xlink:href="#f0_c" transform="matrix(12,0,0,12,196.8,806.7)" />
<use xlink:href="#f0_2" transform="matrix(12,0,0,12,201.8,806.7)" />
<use xlink:href="#f0_2" transform="matrix(12,0,0,12,210.7,806.7)" />
</g>
<text x="120" y="806" dx="0,0,0,0,0,0,1.4,0,1.4,0,0,0,0" class="s1">17:00 - 18:00</text>
<path d="M110,899.4H231.3v-65H110v65Z" class="g1"/>
<g fill="#000000" >
<use xlink:href="#f0_3" transform="matrix(12,0,0,12,120.3,871.6)" />
<use xlink:href="#f0_a" transform="matrix(12,0,0,12,129.2,871.6)" />
<use xlink:href="#f0_c" transform="matrix(12,0,0,12,138.2,871.6)" />
<use xlink:href="#f0_2" transform="matrix(12,0,0,12,143.1,871.6)" />
<use xlink:href="#f0_2" transform="matrix(12,0,0,12,152.1,871.6)" />
<use xlink:href="#f0_1" transform="matrix(12,0,0,12,167,871.6)" />
<use xlink:href="#f0_3" transform="matrix(12,0,0,12,178.9,871.6)" />
<use xlink:href="#f0_b" transform="matrix(12,0,0,12,187.9,871.6)" />
<use xlink:href="#f0_c" transform="matrix(12,0,0,12,196.8,871.6)" />
<use xlink:href="#f0_2" transform="matrix(12,0,0,12,201.8,871.6)" />
<use xlink:href="#f0_2" transform="matrix(12,0,0,12,210.7,871.6)" />
<use xlink:href="#f0_3" transform="matrix(12,0,0,12,120.3,936.6)" />
</g>
<text x="120" y="871" dx="0,0,0,0,0,0,1.4,0,1.4,0,0,0,0" class="s1">18:00 - 19:00</text>
<g fill="#000000" >
<use xlink:href="#f0_b" transform="matrix(12,0,0,12,129.2,936.6)" />
<use xlink:href="#f0_c" transform="matrix(12,0,0,12,138.2,936.6)" />
<use xlink:href="#f0_2" transform="matrix(12,0,0,12,143.1,936.6)" />
<use xlink:href="#f0_2" transform="matrix(12,0,0,12,152.1,936.6)" />
<use xlink:href="#f0_1" transform="matrix(12,0,0,12,167,936.6)" />
<use xlink:href="#f0_4" transform="matrix(12,0,0,12,178.9,936.6)" />
<use xlink:href="#f0_2" transform="matrix(12,0,0,12,187.9,936.6)" />
<use xlink:href="#f0_c" transform="matrix(12,0,0,12,196.8,936.6)" />
<use xlink:href="#f0_2" transform="matrix(12,0,0,12,201.8,936.6)" />
<use xlink:href="#f0_2" transform="matrix(12,0,0,12,210.7,936.6)" />
</g>
<text x="120" y="936" dx="0,0,0,0,0,0,1.4,0,1.4,0,0,0,0" class="s1">19:00 - 20:00</text>
<path d="M110,1029.3H231.3V964.4H110v64.9Z" class="g1"/>
<g fill="#000000" >
<use xlink:href="#f0_4" transform="matrix(12,0,0,12,120.3,1001.5)" />
<use xlink:href="#f0_2" transform="matrix(12,0,0,12,129.2,1001.5)" />
<use xlink:href="#f0_c" transform="matrix(12,0,0,12,138.2,1001.5)" />
<use xlink:href="#f0_2" transform="matrix(12,0,0,12,143.1,1001.5)" />
<use xlink:href="#f0_2" transform="matrix(12,0,0,12,152.1,1001.5)" />
<use xlink:href="#f0_1" transform="matrix(12,0,0,12,167,1001.5)" />
<use xlink:href="#f0_4" transform="matrix(12,0,0,12,178.9,1001.5)" />
<use xlink:href="#f0_3" transform="matrix(12,0,0,12,187.9,1001.5)" />
<use xlink:href="#f0_c" transform="matrix(12,0,0,12,196.8,1001.5)" />
<use xlink:href="#f0_2" transform="matrix(12,0,0,12,201.8,1001.5)" />
<use xlink:href="#f0_2" transform="matrix(12,0,0,12,210.7,1001.5)" />
<use xlink:href="#f0_4" transform="matrix(12,0,0,12,120.3,1066.5)" />
</g>
<text x="120" y="1001" dx="0,0,0,0,0,0,1.4,0,1.4,0,0,0,0" class="s1">20:00 - 21:00</text>
<g fill="#000000" >
<use xlink:href="#f0_3" transform="matrix(12,0,0,12,129.2,1066.5)" />
<use xlink:href="#f0_c" transform="matrix(12,0,0,12,138.2,1066.5)" />
<use xlink:href="#f0_2" transform="matrix(12,0,0,12,143.1,1066.5)" />
<use xlink:href="#f0_2" transform="matrix(12,0,0,12,152.1,1066.5)" />
<use xlink:href="#f0_1" transform="matrix(12,0,0,12,167,1066.5)" />
<use xlink:href="#f0_4" transform="matrix(12,0,0,12,178.9,1066.5)" />
<use xlink:href="#f0_4" transform="matrix(12,0,0,12,187.9,1066.5)" />
<use xlink:href="#f0_c" transform="matrix(12,0,0,12,196.8,1066.5)" />
<use xlink:href="#f0_2" transform="matrix(12,0,0,12,201.8,1066.5)" />
<use xlink:href="#f0_2" transform="matrix(12,0,0,12,210.7,1066.5)" />
</g>
<text x="120" y="1066" dx="0,0,0,0,0,0,1.4,0,1.4,0,0,0,0" class="s1">21:00 - 22:00</text>
<path d="M231.3,184.8H352.5V130.7H231.3v54.1Z" class="g1"/>
<g fill="#000000" >
<use xlink:href="#f0_e" transform="matrix(12,0,0,12,235.6,162.8)" />
<use xlink:href="#f0_n" transform="matrix(12,0,0,12,251.1,162.8)" />
<use xlink:href="#f0_m" transform="matrix(12,0,0,12,260,162.8)" />
<use xlink:href="#f0_i" transform="matrix(12,0,0,12,269.2,162.8)" />
<use xlink:href="#f0_h" transform="matrix(12,0,0,12,278.4,162.8)" />
<use xlink:href="#f0_r" transform="matrix(12,0,0,12,286.5,162.8)" />
<use xlink:href="#f0_f" transform="matrix(12,0,0,12,356.9,162.8)" />
<use xlink:href="#f0_q" transform="matrix(12,0,0,12,367.6,162.8)" />
<use xlink:href="#f0_j" transform="matrix(12,0,0,12,376.7,162.8)" />
<use xlink:href="#f0_p" transform="matrix(12,0,0,12,384.7,162.8)" />
<use xlink:href="#f0_i" transform="matrix(12,0,0,12,391.5,162.8)" />
<use xlink:href="#f0_h" transform="matrix(12,0,0,12,400.7,162.8)" />
<use xlink:href="#f0_r" transform="matrix(12,0,0,12,408.8,162.8)" />
</g>
<text x="235" y="162" dx="0,0,0,0,0,-.5" class="s1">Monday</text>
<text x="356" y="162" dx="0,-1.5,0,0,0,0,-.5" class="s1">Tuesday</text>
<path d="M473.8,184.8H595V130.7H473.8v54.1Z" class="g1"/>
<g fill="#000000" >
<use xlink:href="#f0_g" transform="matrix(12,0,0,12,478.1,162.8)" />
<use xlink:href="#f0_j" transform="matrix(12,0,0,12,494.4,162.8)" />
<use xlink:href="#f0_i" transform="matrix(12,0,0,12,502.4,162.8)" />
<use xlink:href="#f0_m" transform="matrix(12,0,0,12,511.5,162.8)" />
<use xlink:href="#f0_j" transform="matrix(12,0,0,12,520.7,162.8)" />
<use xlink:href="#f0_p" transform="matrix(12,0,0,12,528.6,162.8)" />
<use xlink:href="#f0_i" transform="matrix(12,0,0,12,535.5,162.8)" />
<use xlink:href="#f0_h" transform="matrix(12,0,0,12,544.7,162.8)" />
<use xlink:href="#f0_r" transform="matrix(12,0,0,12,552.7,162.8)" />
<use xlink:href="#f0_f" transform="matrix(12,0,0,12,599.4,162.8)" />
<use xlink:href="#f0_k" transform="matrix(12,0,0,12,611.6,162.8)" />
<use xlink:href="#f0_q" transform="matrix(12,0,0,12,620.7,162.8)" />
<use xlink:href="#f0_o" transform="matrix(12,0,0,12,629.9,162.8)" />
<use xlink:href="#f0_p" transform="matrix(12,0,0,12,636,162.8)" />
<use xlink:href="#f0_i" transform="matrix(12,0,0,12,642.9,162.8)" />
<use xlink:href="#f0_h" transform="matrix(12,0,0,12,652,162.8)" />
<use xlink:href="#f0_r" transform="matrix(12,0,0,12,660.1,162.8)" />
</g>
<text x="478" y="162" dx="0,-.5,0,0,0,0,0,0,-.5" class="s1">Wednesday</text>
<text x="599" y="162" dx="0,0,0,0,0,0,0,-.5" class="s1">Thursday</text>
<path d="M716.3,184.8H837.6V130.7H716.3v54.1Z" class="g1"/>
<g fill="#000000" >
<use xlink:href="#f0_d" transform="matrix(12,0,0,12,720.6,162.8)" />
<use xlink:href="#f0_o" transform="matrix(12,0,0,12,730.3,162.8)" />
<use xlink:href="#f0_l" transform="matrix(12,0,0,12,736.4,162.8)" />
<use xlink:href="#f0_i" transform="matrix(12,0,0,12,740.6,162.8)" />
<use xlink:href="#f0_h" transform="matrix(12,0,0,12,749.8,162.8)" />
<use xlink:href="#f0_r" transform="matrix(12,0,0,12,757.8,162.8)" />
</g>
<text x="720" y="162" dx="0,-.5,0,0,0,-.5" class="s1">Friday</text>
<path d="M236.6,498.2H347.2V413.1H236.6v85.1Z" class="g2"/>
<path d="M232,493.6H351.8V417.7H232v75.9Z" class="g2"/>
<g fill="#B5D091" >
<use xlink:href="#f1_1" transform="matrix(10,0,0,10,236.6,493.6)" />
<use xlink:href="#f1_1" transform="matrix(10,0,0,10,236.6,417.7)" />
</g>
<text x="236" y="493" class="s2">✉</text>
<g fill="#B5D091" >
<use xlink:href="#f1_1" transform="matrix(10,0,0,10,347.2,493.6)" />
</g>
<text x="236" y="417" class="s2">✉</text>
<g fill="#B5D091" >
<use xlink:href="#f1_1" transform="matrix(10,0,0,10,347.2,417.7)" />
</g>
<text x="347" y="493" class="s2">✉</text>
<g fill="#000000" >
<use xlink:href="#f2_i" transform="matrix(10,0,0,10,236.4,427.5)" />
</g>
<text x="347" y="417" class="s2">✉</text>
<g fill="#000000" >
<use xlink:href="#f2_n" transform="matrix(10,0,0,10,249.7,427.5)" />
<use xlink:href="#f2_l" transform="matrix(10,0,0,10,260.1,427.5)" />
<use xlink:href="#f2_g" transform="matrix(10,0,0,10,268.6,427.5)" />
<use xlink:href="#f2_b" transform="matrix(10,0,0,10,272.8,427.5)" />
<use xlink:href="#f2_3" transform="matrix(10,0,0,10,287.6,427.5)" />
<use xlink:href="#f2_8" transform="matrix(10,0,0,10,295.2,427.5)" />
<use xlink:href="#f2_2" transform="matrix(10,0,0,10,302.8,427.5)" />
<use xlink:href="#f3_a" transform="matrix(7,0,0,7,326.1,479.9)" />
</g>
<text x="236" y="427" dx="0,0,0,0,0,0,1.3,0,0" class="s3">MUSIC 271</text>
<g fill="#000000" >
<use xlink:href="#f3_d" transform="matrix(7,0,0,7,333.3,479.9)" />
<use xlink:href="#f3_h" transform="matrix(7,0,0,7,340.9,479.9)" />
<use xlink:href="#f3_2" transform="matrix(7,0,0,7,325.5,489)" />
</g>
<text x="326" y="479" class="s4">CGR</text>
<g fill="#000000" >
<use xlink:href="#f3_3" transform="matrix(7,0,0,7,331.2,489)" />
<use xlink:href="#f3_1" transform="matrix(7,0,0,7,336.9,489)" />
<use xlink:href="#f3_9" transform="matrix(7,0,0,7,342.5,489)" />
</g>
<text x="325" y="489" class="s4">1208</text>
<path d="M721.6,498.2H832.2V413.1H721.6v85.1Z" class="g2"/>
<path d="M717.1,493.6H836.8V417.7H717.1v75.9Z" class="g2"/>
<g fill="#B5D091" >
<use xlink:href="#f1_1" transform="matrix(10,0,0,10,721.6,493.6)" />
<use xlink:href="#f1_1" transform="matrix(10,0,0,10,721.6,417.7)" />
</g>
<text x="721" y="493" class="s2">✉</text>
<g fill="#B5D091" >
<use xlink:href="#f1_1" transform="matrix(10,0,0,10,832.2,493.6)" />
</g>
<text x="721" y="417" class="s2">✉</text>
<g fill="#B5D091" >
<use xlink:href="#f1_1" transform="matrix(10,0,0,10,832.2,417.7)" />
</g>
<text x="832" y="493" class="s2">✉</text>
<g fill="#000000" >
<use xlink:href="#f2_i" transform="matrix(10,0,0,10,721.4,427.5)" />
</g>
<text x="832" y="417" class="s2">✉</text>
<g fill="#000000" >
<use xlink:href="#f2_n" transform="matrix(10,0,0,10,734.7,427.5)" />
<use xlink:href="#f2_l" transform="matrix(10,0,0,10,745.2,427.5)" />
<use xlink:href="#f2_g" transform="matrix(10,0,0,10,753.6,427.5)" />
<use xlink:href="#f2_b" transform="matrix(10,0,0,10,757.9,427.5)" />
<use xlink:href="#f2_3" transform="matrix(10,0,0,10,772.7,427.5)" />
<use xlink:href="#f2_8" transform="matrix(10,0,0,10,780.3,427.5)" />
<use xlink:href="#f2_2" transform="matrix(10,0,0,10,787.9,427.5)" />
<use xlink:href="#f3_a" transform="matrix(7,0,0,7,811.1,479.9)" />
</g>
<text x="721" y="427" dx="0,0,0,0,0,0,1.3,0,0" class="s3">MUSIC 271</text>
<g fill="#000000" >
<use xlink:href="#f3_d" transform="matrix(7,0,0,7,818.4,479.9)" />
<use xlink:href="#f3_h" transform="matrix(7,0,0,7,825.9,479.9)" />
<use xlink:href="#f3_2" transform="matrix(7,0,0,7,810.6,489)" />
</g>
<text x="811" y="479" class="s4">CGR</text>
<g fill="#000000" >
<use xlink:href="#f3_3" transform="matrix(7,0,0,7,816.2,489)" />
<use xlink:href="#f3_1" transform="matrix(7,0,0,7,821.9,489)" />
<use xlink:href="#f3_9" transform="matrix(7,0,0,7,827.6,489)" />
</g>
<text x="810" y="489" class="s4">1208</text>
<path d="M479.1,465.7H589.7V413.1H479.1v52.6Z" class="g2"/>
<path d="M474.5,461.2H594.3V417.7H474.5v43.5Z" class="g2"/>
<g fill="#B5D091" >
<use xlink:href="#f1_1" transform="matrix(10,0,0,10,479.1,461.2)" />
<use xlink:href="#f1_1" transform="matrix(10,0,0,10,479.1,417.7)" />
</g>
<text x="479" y="461" class="s2">✉</text>
<g fill="#B5D091" >
<use xlink:href="#f1_1" transform="matrix(10,0,0,10,589.7,461.2)" />
</g>
<text x="479" y="417" class="s2">✉</text>
<g fill="#B5D091" >
<use xlink:href="#f1_1" transform="matrix(10,0,0,10,589.7,417.7)" />
</g>
<text x="589" y="461" class="s2">✉</text>
<g fill="#000000" >
<use xlink:href="#f2_i" transform="matrix(10,0,0,10,478.9,427.5)" />
</g>
<text x="589" y="417" class="s2">✉</text>
<g fill="#000000" >
<use xlink:href="#f2_n" transform="matrix(10,0,0,10,492.2,427.5)" />
<use xlink:href="#f2_l" transform="matrix(10,0,0,10,502.7,427.5)" />
<use xlink:href="#f2_g" transform="matrix(10,0,0,10,511.1,427.5)" />
<use xlink:href="#f2_b" transform="matrix(10,0,0,10,515.3,427.5)" />
<use xlink:href="#f2_3" transform="matrix(10,0,0,10,530.1,427.5)" />
<use xlink:href="#f2_8" transform="matrix(10,0,0,10,537.7,427.5)" />
<use xlink:href="#f2_2" transform="matrix(10,0,0,10,545.4,427.5)" />
<use xlink:href="#f3_a" transform="matrix(7,0,0,7,568.6,447.4)" />
</g>
<text x="478" y="427" dx="0,0,0,0,0,0,1.3,0,0" class="s3">MUSIC 271</text>
<g fill="#000000" >
<use xlink:href="#f3_d" transform="matrix(7,0,0,7,575.8,447.4)" />
<use xlink:href="#f3_h" transform="matrix(7,0,0,7,583.4,447.4)" />
<use xlink:href="#f3_2" transform="matrix(7,0,0,7,568.1,456.5)" />
</g>
<text x="568" y="447" class="s4">CGR</text>
<g fill="#000000" >
<use xlink:href="#f3_3" transform="matrix(7,0,0,7,573.7,456.5)" />
<use xlink:href="#f3_1" transform="matrix(7,0,0,7,579.4,456.5)" />
<use xlink:href="#f3_9" transform="matrix(7,0,0,7,585,456.5)" />
</g>
<text x="568" y="456" class="s4">1208</text>
<path d="M357.8,693.1H468.5V608H357.8v85.1Z" class="g2"/>
<path d="M353.3,688.5H473V612.6H353.3v75.9Z" class="g2"/>
<g fill="#B5D091" >
<use xlink:href="#f1_1" transform="matrix(10,0,0,10,357.8,688.5)" />
<use xlink:href="#f1_1" transform="matrix(10,0,0,10,357.8,612.6)" />
</g>
<text x="357" y="688" class="s2">✉</text>
<g fill="#B5D091" >
<use xlink:href="#f1_1" transform="matrix(10,0,0,10,468.5,688.5)" />
</g>
<text x="357" y="612" class="s2">✉</text>
<g fill="#B5D091" >
<use xlink:href="#f1_1" transform="matrix(10,0,0,10,468.5,612.6)" />
</g>
<text x="468" y="688" class="s2">✉</text>
<g fill="#000000" >
<use xlink:href="#f2_i" transform="matrix(10,0,0,10,357.6,622.4)" />
</g>
<text x="468" y="612" class="s2">✉</text>
<g fill="#000000" >
<use xlink:href="#f2_n" transform="matrix(10,0,0,10,370.9,622.4)" />
<use xlink:href="#f2_l" transform="matrix(10,0,0,10,381.4,622.4)" />
<use xlink:href="#f2_g" transform="matrix(10,0,0,10,389.9,622.4)" />
<use xlink:href="#f2_b" transform="matrix(10,0,0,10,394.1,622.4)" />
<use xlink:href="#f2_3" transform="matrix(10,0,0,10,408.9,622.4)" />
<use xlink:href="#f2_6" transform="matrix(10,0,0,10,416.5,622.4)" />
<use xlink:href="#f2_7" transform="matrix(10,0,0,10,424.1,622.4)" />
<use xlink:href="#f3_a" transform="matrix(7,0,0,7,447.3,674.8)" />
</g>
<text x="357" y="622" dx="0,0,0,0,0,0,1.3,0,0" class="s3">MUSIC 256</text>
<g fill="#000000" >
<use xlink:href="#f3_d" transform="matrix(7,0,0,7,454.6,674.8)" />
<use xlink:href="#f3_h" transform="matrix(7,0,0,7,462.1,674.8)" />
<use xlink:href="#f3_2" transform="matrix(7,0,0,7,446.8,683.9)" />
</g>
<text x="447" y="674" class="s4">CGR</text>
<g fill="#000000" >
<use xlink:href="#f3_3" transform="matrix(7,0,0,7,452.5,683.9)" />
<use xlink:href="#f3_1" transform="matrix(7,0,0,7,458.1,683.9)" />
<use xlink:href="#f3_9" transform="matrix(7,0,0,7,463.8,683.9)" />
</g>
<text x="446" y="683" class="s4">1208</text>
<path d="M600.4,693.1H711V608H600.4v85.1Z" class="g2"/>
<path d="M595.8,688.5H715.5V612.6H595.8v75.9Z" class="g2"/>
<g fill="#B5D091" >
<use xlink:href="#f1_1" transform="matrix(10,0,0,10,600.4,688.5)" />
<use xlink:href="#f1_1" transform="matrix(10,0,0,10,600.4,612.6)" />
</g>
<text x="600" y="688" class="s2">✉</text>
<g fill="#B5D091" >
<use xlink:href="#f1_1" transform="matrix(10,0,0,10,711,688.5)" />
</g>
<text x="600" y="612" class="s2">✉</text>
<g fill="#B5D091" >
<use xlink:href="#f1_1" transform="matrix(10,0,0,10,711,612.6)" />
</g>
<text x="710" y="688" class="s2">✉</text>
<g fill="#000000" >
<use xlink:href="#f2_i" transform="matrix(10,0,0,10,600.1,622.4)" />
</g>
<text x="710" y="612" class="s2">✉</text>
<g fill="#000000" >
<use xlink:href="#f2_n" transform="matrix(10,0,0,10,613.4,622.4)" />
<use xlink:href="#f2_l" transform="matrix(10,0,0,10,623.9,622.4)" />
<use xlink:href="#f2_g" transform="matrix(10,0,0,10,632.4,622.4)" />
<use xlink:href="#f2_b" transform="matrix(10,0,0,10,636.6,622.4)" />
<use xlink:href="#f2_3" transform="matrix(10,0,0,10,651.4,622.4)" />
<use xlink:href="#f2_6" transform="matrix(10,0,0,10,659,622.4)" />
<use xlink:href="#f2_7" transform="matrix(10,0,0,10,666.6,622.4)" />
<use xlink:href="#f3_a" transform="matrix(7,0,0,7,689.9,674.8)" />
</g>
<text x="600" y="622" dx="0,0,0,0,0,0,1.3,0,0" class="s3">MUSIC 256</text>
<g fill="#000000" >
<use xlink:href="#f3_d" transform="matrix(7,0,0,7,697.1,674.8)" />
<use xlink:href="#f3_h" transform="matrix(7,0,0,7,704.6,674.8)" />
<use xlink:href="#f3_2" transform="matrix(7,0,0,7,689.3,683.9)" />
</g>
<text x="689" y="674" class="s4">CGR</text>
<g fill="#000000" >
<use xlink:href="#f3_3" transform="matrix(7,0,0,7,695,683.9)" />
<use xlink:href="#f3_1" transform="matrix(7,0,0,7,700.7,683.9)" />
<use xlink:href="#f3_9" transform="matrix(7,0,0,7,706.3,683.9)" />
</g>
<text x="689" y="683" class="s4">1208</text>
<path d="M357.8,400.8H468.5V315.7H357.8v85.1Z" class="g2"/>
<path d="M353.3,396.2H473v-76H353.3v76Z" class="g2"/>
<g fill="#B5D091" >
<use xlink:href="#f1_1" transform="matrix(10,0,0,10,357.8,396.2)" />
<use xlink:href="#f1_1" transform="matrix(10,0,0,10,357.8,320.2)" />
</g>
<text x="357" y="396" class="s2">✉</text>
<g fill="#B5D091" >
<use xlink:href="#f1_1" transform="matrix(10,0,0,10,468.5,396.2)" />
</g>
<text x="357" y="320" class="s2">✉</text>
<g fill="#B5D091" >
<use xlink:href="#f1_1" transform="matrix(10,0,0,10,468.5,320.2)" />
</g>
<text x="468" y="396" class="s2">✉</text>
<g fill="#000000" >
<use xlink:href="#f2_i" transform="matrix(10,0,0,10,357.6,330)" />
</g>
<text x="468" y="320" class="s2">✉</text>
<g fill="#000000" >
<use xlink:href="#f2_n" transform="matrix(10,0,0,10,370.9,330)" />
<use xlink:href="#f2_l" transform="matrix(10,0,0,10,381.4,330)" />
<use xlink:href="#f2_g" transform="matrix(10,0,0,10,389.9,330)" />
<use xlink:href="#f2_b" transform="matrix(10,0,0,10,394.1,330)" />
<use xlink:href="#f2_2" transform="matrix(10,0,0,10,408.9,330)" />
<use xlink:href="#f2_2" transform="matrix(10,0,0,10,416.5,330)" />
<use xlink:href="#f2_1" transform="matrix(10,0,0,10,424.1,330)" />
<use xlink:href="#f3_a" transform="matrix(7,0,0,7,447.3,382.5)" />
</g>
<text x="357" y="330" dx="0,0,0,0,0,0,1.3,0,0" class="s3">MUSIC 110</text>
<g fill="#000000" >
<use xlink:href="#f3_d" transform="matrix(7,0,0,7,454.6,382.5)" />
<use xlink:href="#f3_h" transform="matrix(7,0,0,7,462.1,382.5)" />
<use xlink:href="#f3_2" transform="matrix(7,0,0,7,446.8,391.6)" />
</g>
<text x="447" y="382" class="s4">CGR</text>
<g fill="#000000" >
<use xlink:href="#f3_3" transform="matrix(7,0,0,7,452.5,391.6)" />
<use xlink:href="#f3_1" transform="matrix(7,0,0,7,458.1,391.6)" />
<use xlink:href="#f3_9" transform="matrix(7,0,0,7,463.8,391.6)" />
</g>
<text x="446" y="391" class="s4">1208</text>
<path d="M600.4,400.8H711V315.7H600.4v85.1Z" class="g2"/>
<path d="M595.8,396.2H715.5v-76H595.8v76Z" class="g2"/>
<g fill="#B5D091" >
<use xlink:href="#f1_1" transform="matrix(10,0,0,10,600.4,396.2)" />
<use xlink:href="#f1_1" transform="matrix(10,0,0,10,600.4,320.2)" />
</g>
<text x="600" y="396" class="s2">✉</text>
<g fill="#B5D091" >
<use xlink:href="#f1_1" transform="matrix(10,0,0,10,711,396.2)" />
</g>
<text x="600" y="320" class="s2">✉</text>
<g fill="#B5D091" >
<use xlink:href="#f1_1" transform="matrix(10,0,0,10,711,320.2)" />
</g>
<text x="710" y="396" class="s2">✉</text>
<g fill="#000000" >
<use xlink:href="#f2_i" transform="matrix(10,0,0,10,600.1,330)" />
</g>
<text x="710" y="320" class="s2">✉</text>
<g fill="#000000" >
<use xlink:href="#f2_n" transform="matrix(10,0,0,10,613.4,330)" />
<use xlink:href="#f2_l" transform="matrix(10,0,0,10,623.9,330)" />
<use xlink:href="#f2_g" transform="matrix(10,0,0,10,632.4,330)" />
<use xlink:href="#f2_b" transform="matrix(10,0,0,10,636.6,330)" />
<use xlink:href="#f2_2" transform="matrix(10,0,0,10,651.4,330)" />
<use xlink:href="#f2_2" transform="matrix(10,0,0,10,659,330)" />
<use xlink:href="#f2_1" transform="matrix(10,0,0,10,666.6,330)" />
<use xlink:href="#f3_a" transform="matrix(7,0,0,7,689.9,382.5)" />
</g>
<text x="600" y="330" dx="0,0,0,0,0,0,1.3,0,0" class="s3">MUSIC 110</text>
<g fill="#000000" >
<use xlink:href="#f3_d" transform="matrix(7,0,0,7,697.1,382.5)" />
<use xlink:href="#f3_h" transform="matrix(7,0,0,7,704.6,382.5)" />
<use xlink:href="#f3_2" transform="matrix(7,0,0,7,689.3,391.6)" />
</g>
<text x="689" y="382" class="s4">CGR</text>
<g fill="#000000" >
<use xlink:href="#f3_3" transform="matrix(7,0,0,7,695,391.6)" />
<use xlink:href="#f3_1" transform="matrix(7,0,0,7,700.7,391.6)" />
<use xlink:href="#f3_9" transform="matrix(7,0,0,7,706.3,391.6)" />
</g>
<text x="689" y="391" class="s4">1208</text>
<path d="M357.8,498.2H468.5V413.1H357.8v85.1Z" class="g2"/>
<path d="M353.3,493.6H473V417.7H353.3v75.9Z" class="g2"/>
<g fill="#B5D091" >
<use xlink:href="#f1_1" transform="matrix(10,0,0,10,357.8,493.6)" />
<use xlink:href="#f1_1" transform="matrix(10,0,0,10,357.8,417.7)" />
</g>
<text x="357" y="493" class="s2">✉</text>
<g fill="#B5D091" >
<use xlink:href="#f1_1" transform="matrix(10,0,0,10,468.5,493.6)" />
</g>
<text x="357" y="417" class="s2">✉</text>
<g fill="#B5D091" >
<use xlink:href="#f1_1" transform="matrix(10,0,0,10,468.5,417.7)" />
</g>
<text x="468" y="493" class="s2">✉</text>
<g fill="#000000" >
<use xlink:href="#f2_b" transform="matrix(10,0,0,10,357.6,427.5)" />
</g>
<text x="468" y="417" class="s2">✉</text>
<g fill="#000000" >
<use xlink:href="#f2_j" transform="matrix(10,0,0,10,367.3,427.5)" />
<use xlink:href="#f2_3" transform="matrix(10,0,0,10,383.6,427.5)" />
<use xlink:href="#f2_6" transform="matrix(10,0,0,10,391.2,427.5)" />
<use xlink:href="#f2_6" transform="matrix(10,0,0,10,398.8,427.5)" />
<use xlink:href="#f3_g" transform="matrix(7,0,0,7,425.9,479.9)" />
</g>
<text x="357" y="427" dx="0,0,0,1.3,0,0" class="s3">CO 255</text>
<g fill="#000000" >
<use xlink:href="#f3_a" transform="matrix(7,0,0,7,435.8,479.9)" />
<use xlink:href="#f3_5" transform="matrix(7,0,0,7,446.8,479.9)" />
<use xlink:href="#f3_1" transform="matrix(7,0,0,7,452.5,479.9)" />
<use xlink:href="#f3_7" transform="matrix(7,0,0,7,458.1,479.9)" />
<use xlink:href="#f3_4" transform="matrix(7,0,0,7,463.8,479.9)" />
</g>
<text x="425" y="479" dx="0,0,0,1.1,0,0,0" class="s4">MC 4063</text>
<path d="M600.4,498.2H711V413.1H600.4v85.1Z" class="g2"/>
<path d="M595.8,493.6H715.5V417.7H595.8v75.9Z" class="g2"/>
<g fill="#B5D091" >
<use xlink:href="#f1_1" transform="matrix(10,0,0,10,600.4,493.6)" />
<use xlink:href="#f1_1" transform="matrix(10,0,0,10,600.4,417.7)" />
</g>
<text x="600" y="493" class="s2">✉</text>
<g fill="#B5D091" >
<use xlink:href="#f1_1" transform="matrix(10,0,0,10,711,493.6)" />
</g>
<text x="600" y="417" class="s2">✉</text>
<g fill="#B5D091" >
<use xlink:href="#f1_1" transform="matrix(10,0,0,10,711,417.7)" />
</g>
<text x="710" y="493" class="s2">✉</text>
<g fill="#000000" >
<use xlink:href="#f2_b" transform="matrix(10,0,0,10,600.1,427.5)" />
</g>
<text x="710" y="417" class="s2">✉</text>
<g fill="#000000" >
<use xlink:href="#f2_j" transform="matrix(10,0,0,10,609.9,427.5)" />
<use xlink:href="#f2_3" transform="matrix(10,0,0,10,626.1,427.5)" />
<use xlink:href="#f2_6" transform="matrix(10,0,0,10,633.7,427.5)" />
<use xlink:href="#f2_6" transform="matrix(10,0,0,10,641.3,427.5)" />
<use xlink:href="#f3_g" transform="matrix(7,0,0,7,668.4,479.9)" />
</g>
<text x="600" y="427" dx="0,0,0,1.3,0,0" class="s3">CO 255</text>
<g fill="#000000" >
<use xlink:href="#f3_a" transform="matrix(7,0,0,7,678.3,479.9)" />
<use xlink:href="#f3_5" transform="matrix(7,0,0,7,689.3,479.9)" />
<use xlink:href="#f3_1" transform="matrix(7,0,0,7,695,479.9)" />
<use xlink:href="#f3_7" transform="matrix(7,0,0,7,700.6,479.9)" />
<use xlink:href="#f3_4" transform="matrix(7,0,0,7,706.3,479.9)" />
</g>
<text x="668" y="479" dx="0,0,0,1.1,0,0,0" class="s4">MC 4063</text>
<path d="M236.6,693.1H347.2V608H236.6v85.1Z" class="g2"/>
<path d="M232,688.5H351.8V612.6H232v75.9Z" class="g2"/>
<g fill="#B5D091" >
<use xlink:href="#f1_1" transform="matrix(10,0,0,10,236.6,688.5)" />
<use xlink:href="#f1_1" transform="matrix(10,0,0,10,236.6,612.6)" />
</g>
<text x="236" y="688" class="s2">✉</text>
<g fill="#B5D091" >
<use xlink:href="#f1_1" transform="matrix(10,0,0,10,347.2,688.5)" />
</g>
<text x="236" y="612" class="s2">✉</text>
<g fill="#B5D091" >
<use xlink:href="#f1_1" transform="matrix(10,0,0,10,347.2,612.6)" />
</g>
<text x="347" y="688" class="s2">✉</text>
<g fill="#000000" >
<use xlink:href="#f2_b" transform="matrix(10,0,0,10,236.4,622.4)" />
</g>
<text x="347" y="612" class="s2">✉</text>
<g fill="#000000" >
<use xlink:href="#f2_l" transform="matrix(10,0,0,10,246.1,622.4)" />
<use xlink:href="#f2_4" transform="matrix(10,0,0,10,259.6,622.4)" />
<use xlink:href="#f2_5" transform="matrix(10,0,0,10,267.2,622.4)" />
<use xlink:href="#f2_2" transform="matrix(10,0,0,10,274.8,622.4)" />
<use xlink:href="#f3_g" transform="matrix(7,0,0,7,304.7,674.8)" />
</g>
<text x="236" y="622" dx="0,0,0,1.3,0,0" class="s3">CS 341</text>
<g fill="#000000" >
<use xlink:href="#f3_a" transform="matrix(7,0,0,7,314.5,674.8)" />
<use xlink:href="#f3_3" transform="matrix(7,0,0,7,325.5,674.8)" />
<use xlink:href="#f3_1" transform="matrix(7,0,0,7,331.2,674.8)" />
<use xlink:href="#f3_2" transform="matrix(7,0,0,7,336.9,674.8)" />
<use xlink:href="#f3_8" transform="matrix(7,0,0,7,342.5,674.8)" />
</g>
<text x="304" y="674" dx="0,0,0,1.1,0,0,0" class="s4">MC 2017</text>
<path d="M479.1,693.1H589.7V608H479.1v85.1Z" class="g2"/>
<path d="M474.5,688.5H594.3V612.6H474.5v75.9Z" class="g2"/>
<g fill="#B5D091" >
<use xlink:href="#f1_1" transform="matrix(10,0,0,10,479.1,688.5)" />
<use xlink:href="#f1_1" transform="matrix(10,0,0,10,479.1,612.6)" />
</g>
<text x="479" y="688" class="s2">✉</text>
<g fill="#B5D091" >
<use xlink:href="#f1_1" transform="matrix(10,0,0,10,589.7,688.5)" />
</g>
<text x="479" y="612" class="s2">✉</text>
<g fill="#B5D091" >
<use xlink:href="#f1_1" transform="matrix(10,0,0,10,589.7,612.6)" />
</g>
<text x="589" y="688" class="s2">✉</text>
<g fill="#000000" >
<use xlink:href="#f2_b" transform="matrix(10,0,0,10,478.9,622.4)" />
</g>
<text x="589" y="612" class="s2">✉</text>
<g fill="#000000" >
<use xlink:href="#f2_l" transform="matrix(10,0,0,10,488.6,622.4)" />
<use xlink:href="#f2_4" transform="matrix(10,0,0,10,502.1,622.4)" />
<use xlink:href="#f2_5" transform="matrix(10,0,0,10,509.7,622.4)" />
<use xlink:href="#f2_2" transform="matrix(10,0,0,10,517.3,622.4)" />
<use xlink:href="#f3_g" transform="matrix(7,0,0,7,547.2,674.8)" />
</g>
<text x="478" y="622" dx="0,0,0,1.3,0,0" class="s3">CS 341</text>
<g fill="#000000" >
<use xlink:href="#f3_a" transform="matrix(7,0,0,7,557.1,674.8)" />
<use xlink:href="#f3_3" transform="matrix(7,0,0,7,568.1,674.8)" />
<use xlink:href="#f3_1" transform="matrix(7,0,0,7,573.7,674.8)" />
<use xlink:href="#f3_2" transform="matrix(7,0,0,7,579.4,674.8)" />
<use xlink:href="#f3_8" transform="matrix(7,0,0,7,585,674.8)" />
</g>
<text x="547" y="674" dx="0,0,0,1.1,0,0,0" class="s4">MC 2017</text>
<path d="M721.6,335.8H832.2V283.2H721.6v52.6Z" class="g2"/>
<path d="M717.1,331.2H836.8V287.8H717.1v43.4Z" class="g2"/>
<g fill="#B5D091" >
<use xlink:href="#f1_1" transform="matrix(10,0,0,10,721.6,331.2)" />
<use xlink:href="#f1_1" transform="matrix(10,0,0,10,721.6,287.8)" />
</g>
<text x="721" y="331" class="s2">✉</text>
<g fill="#B5D091" >
<use xlink:href="#f1_1" transform="matrix(10,0,0,10,832.2,331.2)" />
</g>
<text x="721" y="287" class="s2">✉</text>
<g fill="#B5D091" >
<use xlink:href="#f1_1" transform="matrix(10,0,0,10,832.2,287.8)" />
</g>
<text x="832" y="331" class="s2">✉</text>
<g fill="#000000" >
<use xlink:href="#f2_b" transform="matrix(10,0,0,10,721.4,297.5)" />
</g>
<text x="832" y="287" class="s2">✉</text>
<g fill="#000000" >
<use xlink:href="#f2_l" transform="matrix(10,0,0,10,731.1,297.5)" />
<use xlink:href="#f2_4" transform="matrix(10,0,0,10,744.6,297.5)" />
<use xlink:href="#f2_5" transform="matrix(10,0,0,10,752.3,297.5)" />
<use xlink:href="#f2_2" transform="matrix(10,0,0,10,759.9,297.5)" />
<use xlink:href="#f3_j" transform="matrix(5,0,0,5,772.5,297.5)" />
</g>
<text x="721" y="297" dx="0,0,0,1.3,0,0" class="s3">CS 341</text>
<g fill="#000000" >
<use xlink:href="#f3_k" transform="matrix(5,0,0,5,778.1,297.5)" />
<use xlink:href="#f3_j" transform="matrix(5,0,0,5,783.6,297.5)" />
<use xlink:href="#f3_g" transform="matrix(7,0,0,7,789.7,317.5)" />
</g>
<text x="772" y="297" class="s5">TUT</text>
<g fill="#000000" >
<use xlink:href="#f3_a" transform="matrix(7,0,0,7,799.6,317.5)" />
<use xlink:href="#f3_3" transform="matrix(7,0,0,7,810.6,317.5)" />
<use xlink:href="#f3_1" transform="matrix(7,0,0,7,816.2,317.5)" />
<use xlink:href="#f3_4" transform="matrix(7,0,0,7,821.9,317.5)" />
<use xlink:href="#f3_5" transform="matrix(7,0,0,7,827.6,317.5)" />
</g>
<text x="789" y="317" dx="0,0,0,1.1,0,0,0" class="s4">MC 2034</text>
<path d="M236.6,400.8H347.2V315.7H236.6v85.1Z" class="g2"/>
<path d="M232,396.2H351.8v-76H232v76Z" class="g2"/>
<g fill="#B5D091" >
<use xlink:href="#f1_1" transform="matrix(10,0,0,10,236.6,396.2)" />
<use xlink:href="#f1_1" transform="matrix(10,0,0,10,236.6,320.2)" />
</g>
<text x="236" y="396" class="s2">✉</text>
<g fill="#B5D091" >
<use xlink:href="#f1_1" transform="matrix(10,0,0,10,347.2,396.2)" />
</g>
<text x="236" y="320" class="s2">✉</text>
<g fill="#B5D091" >
<use xlink:href="#f1_1" transform="matrix(10,0,0,10,347.2,320.2)" />
</g>
<text x="347" y="396" class="s2">✉</text>
<g fill="#000000" >
<use xlink:href="#f2_b" transform="matrix(10,0,0,10,236.4,330)" />
</g>
<text x="347" y="320" class="s2">✉</text>
<g fill="#000000" >
<use xlink:href="#f2_l" transform="matrix(10,0,0,10,246.1,330)" />
<use xlink:href="#f2_4" transform="matrix(10,0,0,10,259.6,330)" />
<use xlink:href="#f2_6" transform="matrix(10,0,0,10,267.2,330)" />
<use xlink:href="#f2_1" transform="matrix(10,0,0,10,274.8,330)" />
<use xlink:href="#f3_g" transform="matrix(7,0,0,7,304.7,382.5)" />
</g>
<text x="236" y="330" dx="0,0,0,1.3,0,0" class="s3">CS 350</text>
<g fill="#000000" >
<use xlink:href="#f3_a" transform="matrix(7,0,0,7,314.5,382.5)" />
<use xlink:href="#f3_3" transform="matrix(7,0,0,7,325.5,382.5)" />
<use xlink:href="#f3_1" transform="matrix(7,0,0,7,331.2,382.5)" />
<use xlink:href="#f3_4" transform="matrix(7,0,0,7,336.9,382.5)" />
<use xlink:href="#f3_9" transform="matrix(7,0,0,7,342.5,382.5)" />
</g>
<text x="304" y="382" dx="0,0,0,1.1,0,0,0" class="s4">MC 2038</text>
<path d="M479.1,400.8H589.7V315.7H479.1v85.1Z" class="g2"/>
<path d="M474.5,396.2H594.3v-76H474.5v76Z" class="g2"/>
<g fill="#B5D091" >
<use xlink:href="#f1_1" transform="matrix(10,0,0,10,479.1,396.2)" />
<use xlink:href="#f1_1" transform="matrix(10,0,0,10,479.1,320.2)" />
</g>
<text x="479" y="396" class="s2">✉</text>
<g fill="#B5D091" >
<use xlink:href="#f1_1" transform="matrix(10,0,0,10,589.7,396.2)" />
</g>
<text x="479" y="320" class="s2">✉</text>
<g fill="#B5D091" >
<use xlink:href="#f1_1" transform="matrix(10,0,0,10,589.7,320.2)" />
</g>
<text x="589" y="396" class="s2">✉</text>
<g fill="#000000" >
<use xlink:href="#f2_b" transform="matrix(10,0,0,10,478.9,330)" />
</g>
<text x="589" y="320" class="s2">✉</text>
<g fill="#000000" >
<use xlink:href="#f2_l" transform="matrix(10,0,0,10,488.6,330)" />
<use xlink:href="#f2_4" transform="matrix(10,0,0,10,502.1,330)" />
<use xlink:href="#f2_6" transform="matrix(10,0,0,10,509.7,330)" />
<use xlink:href="#f2_1" transform="matrix(10,0,0,10,517.3,330)" />
<use xlink:href="#f3_g" transform="matrix(7,0,0,7,547.2,382.5)" />
</g>
<text x="478" y="330" dx="0,0,0,1.3,0,0" class="s3">CS 350</text>
<g fill="#000000" >
<use xlink:href="#f3_a" transform="matrix(7,0,0,7,557.1,382.5)" />
<use xlink:href="#f3_3" transform="matrix(7,0,0,7,568.1,382.5)" />
<use xlink:href="#f3_1" transform="matrix(7,0,0,7,573.7,382.5)" />
<use xlink:href="#f3_4" transform="matrix(7,0,0,7,579.4,382.5)" />
<use xlink:href="#f3_9" transform="matrix(7,0,0,7,585,382.5)" />
</g>
<text x="547" y="382" dx="0,0,0,1.1,0,0,0" class="s4">MC 2038</text>
<path d="M236.6,790.5H347.2V705.4H236.6v85.1Z" class="g2"/>
<path d="M232,786H351.8V710H232v76Z" class="g2"/>
<g fill="#B5D091" >
<use xlink:href="#f1_1" transform="matrix(10,0,0,10,236.6,786)" />
<use xlink:href="#f1_1" transform="matrix(10,0,0,10,236.6,710)" />
</g>
<text x="236" y="785" class="s2">✉</text>
<g fill="#B5D091" >
<use xlink:href="#f1_1" transform="matrix(10,0,0,10,347.2,786)" />
</g>
<text x="236" y="709" class="s2">✉</text>
<g fill="#B5D091" >
<use xlink:href="#f1_1" transform="matrix(10,0,0,10,347.2,710)" />
</g>
<text x="347" y="785" class="s2">✉</text>
<g fill="#000000" >
<use xlink:href="#f2_k" transform="matrix(10,0,0,10,236.4,719.8)" />
</g>
<text x="347" y="709" class="s2">✉</text>
<g fill="#000000" >
<use xlink:href="#f2_f" transform="matrix(10,0,0,10,246.1,719.8)" />
<use xlink:href="#f2_o" transform="matrix(10,0,0,10,256.9,719.8)" />
<use xlink:href="#f2_l" transform="matrix(10,0,0,10,267,719.8)" />
<use xlink:href="#f2_3" transform="matrix(10,0,0,10,280.5,719.8)" />
<use xlink:href="#f2_4" transform="matrix(10,0,0,10,288.1,719.8)" />
<use xlink:href="#f2_4" transform="matrix(10,0,0,10,295.8,719.8)" />
<use xlink:href="#f3_g" transform="matrix(7,0,0,7,304.7,772.2)" />
</g>
<text x="236" y="719" dx="0,0,0,0,0,1.3,0,0" class="s3">PHYS 233</text>
<g fill="#000000" >
<use xlink:href="#f3_a" transform="matrix(7,0,0,7,314.5,772.2)" />
<use xlink:href="#f3_2" transform="matrix(7,0,0,7,325.5,772.2)" />
<use xlink:href="#f3_1" transform="matrix(7,0,0,7,331.2,772.2)" />
<use xlink:href="#f3_6" transform="matrix(7,0,0,7,336.9,772.2)" />
<use xlink:href="#f3_7" transform="matrix(7,0,0,7,342.5,772.2)" />
</g>
<text x="304" y="772" dx="0,0,0,1.1,0,0,0" class="s4">MC 1056</text>
<path d="M479.1,790.5H589.7V705.4H479.1v85.1Z" class="g2"/>
<path d="M474.5,786H594.3V710H474.5v76Z" class="g2"/>
<g fill="#B5D091" >
<use xlink:href="#f1_1" transform="matrix(10,0,0,10,479.1,786)" />
<use xlink:href="#f1_1" transform="matrix(10,0,0,10,479.1,710)" />
</g>
<text x="479" y="785" class="s2">✉</text>
<g fill="#B5D091" >
<use xlink:href="#f1_1" transform="matrix(10,0,0,10,589.7,786)" />
</g>
<text x="479" y="709" class="s2">✉</text>
<g fill="#B5D091" >
<use xlink:href="#f1_1" transform="matrix(10,0,0,10,589.7,710)" />
</g>
<text x="589" y="785" class="s2">✉</text>
<g fill="#000000" >
<use xlink:href="#f2_k" transform="matrix(10,0,0,10,478.9,719.8)" />
</g>
<text x="589" y="709" class="s2">✉</text>
<g fill="#000000" >
<use xlink:href="#f2_f" transform="matrix(10,0,0,10,488.6,719.8)" />
<use xlink:href="#f2_o" transform="matrix(10,0,0,10,499.4,719.8)" />
<use xlink:href="#f2_l" transform="matrix(10,0,0,10,509.5,719.8)" />
<use xlink:href="#f2_3" transform="matrix(10,0,0,10,523,719.8)" />
<use xlink:href="#f2_4" transform="matrix(10,0,0,10,530.7,719.8)" />
<use xlink:href="#f2_4" transform="matrix(10,0,0,10,538.3,719.8)" />
<use xlink:href="#f3_g" transform="matrix(7,0,0,7,547.2,772.2)" />
</g>
<text x="478" y="719" dx="0,0,0,0,0,1.3,0,0" class="s3">PHYS 233</text>
<g fill="#000000" >
<use xlink:href="#f3_a" transform="matrix(7,0,0,7,557.1,772.2)" />
<use xlink:href="#f3_2" transform="matrix(7,0,0,7,568.1,772.2)" />
<use xlink:href="#f3_1" transform="matrix(7,0,0,7,573.7,772.2)" />
<use xlink:href="#f3_6" transform="matrix(7,0,0,7,579.4,772.2)" />
<use xlink:href="#f3_7" transform="matrix(7,0,0,7,585,772.2)" />
</g>
<text x="547" y="772" dx="0,0,0,1.1,0,0,0" class="s4">MC 1056</text>
<path d="M236.6,595.6H347.2V543H236.6v52.6Z" class="g2"/>
<path d="M232,591.1H351.8V547.6H232v43.5Z" class="g2"/>
<g fill="#B5D091" >
<use xlink:href="#f1_1" transform="matrix(10,0,0,10,236.6,591.1)" />
<use xlink:href="#f1_1" transform="matrix(10,0,0,10,236.6,547.6)" />
</g>
<text x="236" y="591" class="s2">✉</text>
<g fill="#B5D091" >
<use xlink:href="#f1_1" transform="matrix(10,0,0,10,347.2,591.1)" />
</g>
<text x="236" y="547" class="s2">✉</text>
<g fill="#B5D091" >
<use xlink:href="#f1_1" transform="matrix(10,0,0,10,347.2,547.6)" />
</g>
<text x="347" y="591" class="s2">✉</text>
<g fill="#000000" >
<use xlink:href="#f2_b" transform="matrix(10,0,0,10,236.4,557.4)" />
</g>
<text x="347" y="547" class="s2">✉</text>
<g fill="#000000" >
<use xlink:href="#f2_j" transform="matrix(10,0,0,10,246.1,557.4)" />
<use xlink:href="#f2_4" transform="matrix(10,0,0,10,262.3,557.4)" />
<use xlink:href="#f2_4" transform="matrix(10,0,0,10,270,557.4)" />
<use xlink:href="#f2_2" transform="matrix(10,0,0,10,277.6,557.4)" />
<use xlink:href="#f3_g" transform="matrix(7,0,0,7,304.7,577.3)" />
</g>
<text x="236" y="557" dx="0,0,0,1.3,0,0" class="s3">CO 331</text>
<g fill="#000000" >
<use xlink:href="#f3_a" transform="matrix(7,0,0,7,314.5,577.3)" />
<use xlink:href="#f3_5" transform="matrix(7,0,0,7,325.5,577.3)" />
<use xlink:href="#f3_1" transform="matrix(7,0,0,7,331.2,577.3)" />
<use xlink:href="#f3_7" transform="matrix(7,0,0,7,336.9,577.3)" />
<use xlink:href="#f3_1" transform="matrix(7,0,0,7,342.5,577.3)" />
</g>
<text x="304" y="577" dx="0,0,0,1.1,0,0,0" class="s4">MC 4060</text>
<path d="M479.1,595.6H589.7V543H479.1v52.6Z" class="g2"/>
<path d="M474.5,591.1H594.3V547.6H474.5v43.5Z" class="g2"/>
<g fill="#B5D091" >
<use xlink:href="#f1_1" transform="matrix(10,0,0,10,479.1,591.1)" />
<use xlink:href="#f1_1" transform="matrix(10,0,0,10,479.1,547.6)" />
</g>
<text x="479" y="591" class="s2">✉</text>
<g fill="#B5D091" >
<use xlink:href="#f1_1" transform="matrix(10,0,0,10,589.7,591.1)" />
</g>
<text x="479" y="547" class="s2">✉</text>
<g fill="#B5D091" >
<use xlink:href="#f1_1" transform="matrix(10,0,0,10,589.7,547.6)" />
</g>
<text x="589" y="591" class="s2">✉</text>
<g fill="#000000" >
<use xlink:href="#f2_b" transform="matrix(10,0,0,10,478.9,557.4)" />
</g>
<text x="589" y="547" class="s2">✉</text>
<g fill="#000000" >
<use xlink:href="#f2_j" transform="matrix(10,0,0,10,488.6,557.4)" />
<use xlink:href="#f2_4" transform="matrix(10,0,0,10,504.9,557.4)" />
<use xlink:href="#f2_4" transform="matrix(10,0,0,10,512.5,557.4)" />
<use xlink:href="#f2_2" transform="matrix(10,0,0,10,520.1,557.4)" />
<use xlink:href="#f3_g" transform="matrix(7,0,0,7,547.2,577.3)" />
</g>
<text x="478" y="557" dx="0,0,0,1.3,0,0" class="s3">CO 331</text>
<g fill="#000000" >
<use xlink:href="#f3_a" transform="matrix(7,0,0,7,557.1,577.3)" />
<use xlink:href="#f3_5" transform="matrix(7,0,0,7,568.1,577.3)" />
<use xlink:href="#f3_1" transform="matrix(7,0,0,7,573.7,577.3)" />
<use xlink:href="#f3_7" transform="matrix(7,0,0,7,579.4,577.3)" />
<use xlink:href="#f3_1" transform="matrix(7,0,0,7,585,577.3)" />
</g>
<text x="547" y="577" dx="0,0,0,1.1,0,0,0" class="s4">MC 4060</text>
<path d="M721.6,595.6H832.2V543H721.6v52.6Z" class="g2"/>
<path d="M717.1,591.1H836.8V547.6H717.1v43.5Z" class="g2"/>
<g fill="#B5D091" >
<use xlink:href="#f1_1" transform="matrix(10,0,0,10,721.6,591.1)" />
<use xlink:href="#f1_1" transform="matrix(10,0,0,10,721.6,547.6)" />
</g>
<text x="721" y="591" class="s2">✉</text>
<g fill="#B5D091" >
<use xlink:href="#f1_1" transform="matrix(10,0,0,10,832.2,591.1)" />
</g>
<text x="721" y="547" class="s2">✉</text>
<g fill="#B5D091" >
<use xlink:href="#f1_1" transform="matrix(10,0,0,10,832.2,547.6)" />
</g>
<text x="832" y="591" class="s2">✉</text>
<g fill="#000000" >
<use xlink:href="#f2_b" transform="matrix(10,0,0,10,721.4,557.4)" />
</g>
<text x="832" y="547" class="s2">✉</text>
<g fill="#000000" >
<use xlink:href="#f2_j" transform="matrix(10,0,0,10,731.1,557.4)" />
<use xlink:href="#f2_4" transform="matrix(10,0,0,10,747.4,557.4)" />
<use xlink:href="#f2_4" transform="matrix(10,0,0,10,755,557.4)" />
<use xlink:href="#f2_2" transform="matrix(10,0,0,10,762.6,557.4)" />
<use xlink:href="#f3_g" transform="matrix(7,0,0,7,789.7,577.3)" />
</g>
<text x="721" y="557" dx="0,0,0,1.3,0,0" class="s3">CO 331</text>
<g fill="#000000" >
<use xlink:href="#f3_a" transform="matrix(7,0,0,7,799.6,577.3)" />
<use xlink:href="#f3_5" transform="matrix(7,0,0,7,810.6,577.3)" />
<use xlink:href="#f3_1" transform="matrix(7,0,0,7,816.2,577.3)" />
<use xlink:href="#f3_7" transform="matrix(7,0,0,7,821.9,577.3)" />
<use xlink:href="#f3_1" transform="matrix(7,0,0,7,827.6,577.3)" />
</g>
<text x="789" y="577" dx="0,0,0,1.1,0,0,0" class="s4">MC 4060</text>
<path d="M357.8,303.3H468.5V218.2H357.8v85.1Z" class="g2"/>
<path d="M353.3,298.8H473v-76H353.3v76Z" class="g2"/>
<g fill="#B5D091" >
<use xlink:href="#f1_1" transform="matrix(10,0,0,10,357.8,298.8)" />
<use xlink:href="#f1_1" transform="matrix(10,0,0,10,357.8,222.8)" />
</g>
<text x="357" y="298" class="s2">✉</text>
<g fill="#B5D091" >
<use xlink:href="#f1_1" transform="matrix(10,0,0,10,468.5,298.8)" />
</g>
<text x="357" y="222" class="s2">✉</text>
<g fill="#B5D091" >
<use xlink:href="#f1_1" transform="matrix(10,0,0,10,468.5,222.8)" />
</g>
<text x="468" y="298" class="s2">✉</text>
<g fill="#000000" >
<use xlink:href="#f2_a" transform="matrix(10,0,0,10,357.6,232.6)" />
</g>
<text x="468" y="222" class="s2">✉</text>
<g fill="#000000" >
<use xlink:href="#f2_i" transform="matrix(10,0,0,10,367.8,232.6)" />
<use xlink:href="#f2_a" transform="matrix(10,0,0,10,381.1,232.6)" />
<use xlink:href="#f2_m" transform="matrix(10,0,0,10,390,232.6)" />
<use xlink:href="#f2_f" transform="matrix(10,0,0,10,400.3,232.6)" />
<use xlink:href="#f2_5" transform="matrix(10,0,0,10,416.2,232.6)" />
<use xlink:href="#f2_8" transform="matrix(10,0,0,10,423.8,232.6)" />
<use xlink:href="#f2_6" transform="matrix(10,0,0,10,431.4,232.6)" />
<use xlink:href="#f3_g" transform="matrix(7,0,0,7,425.9,285)" />
</g>
<text x="357" y="232" dx="0,0,0,-1.3,0,0,1.3,0,0" class="s3">AMATH 475</text>
<g fill="#000000" >
<use xlink:href="#f3_a" transform="matrix(7,0,0,7,435.8,285)" />
<use xlink:href="#f3_5" transform="matrix(7,0,0,7,446.8,285)" />
<use xlink:href="#f3_1" transform="matrix(7,0,0,7,452.5,285)" />
<use xlink:href="#f3_3" transform="matrix(7,0,0,7,458.1,285)" />
<use xlink:href="#f3_2" transform="matrix(7,0,0,7,463.8,285)" />
</g>
<text x="425" y="285" dx="0,0,0,1.1,0,0,0" class="s4">MC 4021</text>
<path d="M600.4,303.3H711V218.2H600.4v85.1Z" class="g2"/>
<path d="M595.8,298.8H715.5v-76H595.8v76Z" class="g2"/>
<g fill="#B5D091" >
<use xlink:href="#f1_1" transform="matrix(10,0,0,10,600.4,298.8)" />
<use xlink:href="#f1_1" transform="matrix(10,0,0,10,600.4,222.8)" />
</g>
<text x="600" y="298" class="s2">✉</text>
<g fill="#B5D091" >
<use xlink:href="#f1_1" transform="matrix(10,0,0,10,711,298.8)" />
</g>
<text x="600" y="222" class="s2">✉</text>
<g fill="#B5D091" >
<use xlink:href="#f1_1" transform="matrix(10,0,0,10,711,222.8)" />
</g>
<text x="710" y="298" class="s2">✉</text>
<g fill="#000000" >
<use xlink:href="#f2_a" transform="matrix(10,0,0,10,600.1,232.6)" />
</g>
<text x="710" y="222" class="s2">✉</text>
<g fill="#000000" >
<use xlink:href="#f2_i" transform="matrix(10,0,0,10,610.3,232.6)" />
<use xlink:href="#f2_a" transform="matrix(10,0,0,10,623.6,232.6)" />
<use xlink:href="#f2_m" transform="matrix(10,0,0,10,632.5,232.6)" />
<use xlink:href="#f2_f" transform="matrix(10,0,0,10,642.8,232.6)" />
<use xlink:href="#f2_5" transform="matrix(10,0,0,10,658.7,232.6)" />
<use xlink:href="#f2_8" transform="matrix(10,0,0,10,666.3,232.6)" />
<use xlink:href="#f2_6" transform="matrix(10,0,0,10,673.9,232.6)" />
<use xlink:href="#f3_g" transform="matrix(7,0,0,7,668.4,285)" />
</g>
<text x="600" y="232" dx="0,0,0,-1.3,0,0,1.3,0,0" class="s3">AMATH 475</text>
<g fill="#000000" >
<use xlink:href="#f3_a" transform="matrix(7,0,0,7,678.3,285)" />
<use xlink:href="#f3_5" transform="matrix(7,0,0,7,689.3,285)" />
<use xlink:href="#f3_1" transform="matrix(7,0,0,7,695,285)" />
<use xlink:href="#f3_3" transform="matrix(7,0,0,7,700.6,285)" />
<use xlink:href="#f3_2" transform="matrix(7,0,0,7,706.3,285)" />
</g>
<text x="668" y="285" dx="0,0,0,1.1,0,0,0" class="s4">MC 4021</text>
<path d="M357.8,855.5H468.5V802.9H357.8v52.6Z" class="g2"/>
<path d="M353.3,850.9H473V807.4H353.3v43.5Z" class="g2"/>
<g fill="#B5D091" >
<use xlink:href="#f1_1" transform="matrix(10,0,0,10,357.8,850.9)" />
<use xlink:href="#f1_1" transform="matrix(10,0,0,10,357.8,807.4)" />
</g>
<text x="357" y="850" class="s2">✉</text>
<g fill="#B5D091" >
<use xlink:href="#f1_1" transform="matrix(10,0,0,10,468.5,850.9)" />
</g>
<text x="357" y="807" class="s2">✉</text>
<g fill="#B5D091" >
<use xlink:href="#f1_1" transform="matrix(10,0,0,10,468.5,807.4)" />
</g>
<text x="468" y="850" class="s2">✉</text>
<g fill="#000000" >
<use xlink:href="#f2_a" transform="matrix(10,0,0,10,357.6,817.2)" />
</g>
<text x="468" y="807" class="s2">✉</text>
<g fill="#000000" >
<use xlink:href="#f2_i" transform="matrix(10,0,0,10,367.8,817.2)" />
<use xlink:href="#f2_a" transform="matrix(10,0,0,10,381.1,817.2)" />
<use xlink:href="#f2_m" transform="matrix(10,0,0,10,390,817.2)" />
<use xlink:href="#f2_f" transform="matrix(10,0,0,10,400.3,817.2)" />
<use xlink:href="#f2_5" transform="matrix(10,0,0,10,416.2,817.2)" />
<use xlink:href="#f2_8" transform="matrix(10,0,0,10,423.8,817.2)" />
<use xlink:href="#f2_6" transform="matrix(10,0,0,10,431.4,817.2)" />
<use xlink:href="#f3_j" transform="matrix(5,0,0,5,444.1,817.2)" />
</g>
<text x="357" y="817" dx="0,0,0,-1.3,0,0,1.3,0,0" class="s3">AMATH 475</text>
<g fill="#000000" >
<use xlink:href="#f3_k" transform="matrix(5,0,0,5,449.6,817.2)" />
<use xlink:href="#f3_j" transform="matrix(5,0,0,5,455.1,817.2)" />
<use xlink:href="#f3_g" transform="matrix(7,0,0,7,425.9,837.2)" />
</g>
<text x="444" y="817" class="s5">TUT</text>
<g fill="#000000" >
<use xlink:href="#f3_a" transform="matrix(7,0,0,7,435.8,837.2)" />
<use xlink:href="#f3_5" transform="matrix(7,0,0,7,446.8,837.2)" />
<use xlink:href="#f3_1" transform="matrix(7,0,0,7,452.5,837.2)" />
<use xlink:href="#f3_3" transform="matrix(7,0,0,7,458.1,837.2)" />
<use xlink:href="#f3_2" transform="matrix(7,0,0,7,463.8,837.2)" />
</g>
<text x="425" y="837" dx="0,0,0,1.1,0,0,0" class="s4">MC 4021</text>
<path d="M236.6,1050.4H347.2V867.8H236.6v182.6Z" class="g2"/>
<path d="M232,1045.8H351.8V872.4H232v173.4Z" class="g2"/>
<g fill="#B5D091" >
<use xlink:href="#f1_1" transform="matrix(10,0,0,10,236.6,1045.8)" />
<use xlink:href="#f1_1" transform="matrix(10,0,0,10,236.6,872.4)" />
</g>
<text x="236" y="1045" class="s2">✉</text>
<g fill="#B5D091" >
<use xlink:href="#f1_1" transform="matrix(10,0,0,10,347.2,1045.8)" />
</g>
<text x="236" y="872" class="s2">✉</text>
<g fill="#B5D091" >
<use xlink:href="#f1_1" transform="matrix(10,0,0,10,347.2,872.4)" />
</g>
<text x="347" y="1045" class="s2">✉</text>
<g fill="#000000" >
<use xlink:href="#f2_k" transform="matrix(10,0,0,10,236.4,882.2)" />
</g>
<text x="347" y="872" class="s2">✉</text>
<g fill="#000000" >
<use xlink:href="#f2_l" transform="matrix(10,0,0,10,246.1,882.2)" />
<use xlink:href="#f2_o" transform="matrix(10,0,0,10,254.5,882.2)" />
<use xlink:href="#f2_b" transform="matrix(10,0,0,10,264.7,882.2)" />
<use xlink:href="#f2_f" transform="matrix(10,0,0,10,274.4,882.2)" />
<use xlink:href="#f2_3" transform="matrix(10,0,0,10,290.3,882.2)" />
<use xlink:href="#f2_6" transform="matrix(10,0,0,10,297.9,882.2)" />
<use xlink:href="#f2_4" transform="matrix(10,0,0,10,305.5,882.2)" />
<use xlink:href="#f3_b" transform="matrix(7,0,0,7,306.4,1032.1)" />
</g>
<text x="236" y="882" dx="0,0,0,0,0,0,1.3,0,0" class="s3">PSYCH 253</text>
<g fill="#000000" >
<use xlink:href="#f3_a" transform="matrix(7,0,0,7,314.5,1032.1)" />
<use xlink:href="#f3_2" transform="matrix(7,0,0,7,325.5,1032.1)" />
<use xlink:href="#f3_4" transform="matrix(7,0,0,7,331.2,1032.1)" />
<use xlink:href="#f3_6" transform="matrix(7,0,0,7,336.9,1032.1)" />
<use xlink:href="#f3_1" transform="matrix(7,0,0,7,342.5,1032.1)" />
</g>
<text x="306" y="1032" dx="0,0,0,1.1,0,0,0" class="s4">DC 1350</text>
<path d="M600.4,1050.4H711V867.8H600.4v182.6Z" class="g2"/>
<path d="M595.8,1045.8H715.5V872.4H595.8v173.4Z" class="g2"/>
<g fill="#B5D091" >
<use xlink:href="#f1_1" transform="matrix(10,0,0,10,600.4,1045.8)" />
<use xlink:href="#f1_1" transform="matrix(10,0,0,10,600.4,872.4)" />
</g>
<text x="600" y="1045" class="s2">✉</text>
<g fill="#B5D091" >
<use xlink:href="#f1_1" transform="matrix(10,0,0,10,711,1045.8)" />
</g>
<text x="600" y="872" class="s2">✉</text>
<g fill="#B5D091" >
<use xlink:href="#f1_1" transform="matrix(10,0,0,10,711,872.4)" />
</g>
<text x="710" y="1045" class="s2">✉</text>
<g fill="#000000" >
<use xlink:href="#f2_k" transform="matrix(10,0,0,10,600.1,882.2)" />
</g>
<text x="710" y="872" class="s2">✉</text>
<g fill="#000000" >
<use xlink:href="#f2_l" transform="matrix(10,0,0,10,609.9,882.2)" />
<use xlink:href="#f2_o" transform="matrix(10,0,0,10,618.3,882.2)" />
<use xlink:href="#f2_b" transform="matrix(10,0,0,10,628.5,882.2)" />
<use xlink:href="#f2_f" transform="matrix(10,0,0,10,638.2,882.2)" />
<use xlink:href="#f2_4" transform="matrix(10,0,0,10,654,882.2)" />
<use xlink:href="#f2_6" transform="matrix(10,0,0,10,661.6,882.2)" />
<use xlink:href="#f2_8" transform="matrix(10,0,0,10,669.3,882.2)" />
<use xlink:href="#f3_i" transform="matrix(7,0,0,7,668.3,1032.1)" />
</g>
<text x="600" y="882" dx="0,0,0,0,0,0,1.3,0,0" class="s3">PSYCH 357</text>
<g fill="#000000" >
<use xlink:href="#f3_f" transform="matrix(7,0,0,7,674.5,1032.1)" />
<use xlink:href="#f3_3" transform="matrix(7,0,0,7,679.9,1032.1)" />
<use xlink:href="#f3_2" transform="matrix(7,0,0,7,689.3,1032.1)" />
<use xlink:href="#f3_1" transform="matrix(7,0,0,7,695,1032.1)" />
<use xlink:href="#f3_1" transform="matrix(7,0,0,7,700.6,1032.1)" />
<use xlink:href="#f3_3" transform="matrix(7,0,0,7,706.3,1032.1)" />
</g>
<text x="668" y="1032" dx="0,0,0,0,1.1,0,0,0" class="s4">SJ2 1002</text>
<path d="M357.8,595.6H468.5V510.5H357.8v85.1Z" class="g2"/>
<path d="M353.3,591.1H473v-76H353.3v76Z" class="g2"/>
<g fill="#B5D091" >
<use xlink:href="#f1_1" transform="matrix(10,0,0,10,357.8,591.1)" />
<use xlink:href="#f1_1" transform="matrix(10,0,0,10,357.8,515.1)" />
</g>
<text x="357" y="591" class="s2">✉</text>
<g fill="#B5D091" >
<use xlink:href="#f1_1" transform="matrix(10,0,0,10,468.5,591.1)" />
</g>
<text x="357" y="515" class="s2">✉</text>
<g fill="#B5D091" >
<use xlink:href="#f1_1" transform="matrix(10,0,0,10,468.5,515.1)" />
</g>
<text x="468" y="591" class="s2">✉</text>
<g fill="#000000" >
<use xlink:href="#f2_k" transform="matrix(10,0,0,10,357.6,524.9)" />
</g>
<text x="468" y="515" class="s2">✉</text>
<g fill="#000000" >
<use xlink:href="#f2_f" transform="matrix(10,0,0,10,367.3,524.9)" />
<use xlink:href="#f2_g" transform="matrix(10,0,0,10,378.1,524.9)" />
<use xlink:href="#f2_h" transform="matrix(10,0,0,10,382.3,524.9)" />
<use xlink:href="#f2_3" transform="matrix(10,0,0,10,395.7,524.9)" />
<use xlink:href="#f2_6" transform="matrix(10,0,0,10,403.3,524.9)" />
<use xlink:href="#f2_2" transform="matrix(10,0,0,10,410.9,524.9)" />
<use xlink:href="#f3_e" transform="matrix(7,0,0,7,432.7,577.3)" />
</g>
<text x="357" y="524" dx="0,0,0,0,0,1.3,0,0" class="s3">PHIL 251</text>
<g fill="#000000" >
<use xlink:href="#f3_e" transform="matrix(7,0,0,7,440.7,577.3)" />
<use xlink:href="#f3_2" transform="matrix(7,0,0,7,452.5,577.3)" />
<use xlink:href="#f3_6" transform="matrix(7,0,0,7,458.1,577.3)" />
<use xlink:href="#f3_1" transform="matrix(7,0,0,7,463.8,577.3)" />
</g>
<text x="432" y="577" dx="0,0,0,1.1,0,0" class="s4">HH 150</text>
<path d="M600.4,595.6H711V510.5H600.4v85.1Z" class="g2"/>
<path d="M595.8,591.1H715.5v-76H595.8v76Z" class="g2"/>
<g fill="#B5D091" >
<use xlink:href="#f1_1" transform="matrix(10,0,0,10,600.4,591.1)" />
<use xlink:href="#f1_1" transform="matrix(10,0,0,10,600.4,515.1)" />
</g>
<text x="600" y="591" class="s2">✉</text>
<g fill="#B5D091" >
<use xlink:href="#f1_1" transform="matrix(10,0,0,10,711,591.1)" />
</g>
<text x="600" y="515" class="s2">✉</text>
<g fill="#B5D091" >
<use xlink:href="#f1_1" transform="matrix(10,0,0,10,711,515.1)" />
</g>
<text x="710" y="591" class="s2">✉</text>
<g fill="#000000" >
<use xlink:href="#f2_k" transform="matrix(10,0,0,10,600.1,524.9)" />
</g>
<text x="710" y="515" class="s2">✉</text>
<g fill="#000000" >
<use xlink:href="#f2_f" transform="matrix(10,0,0,10,609.9,524.9)" />
<use xlink:href="#f2_g" transform="matrix(10,0,0,10,620.6,524.9)" />
<use xlink:href="#f2_h" transform="matrix(10,0,0,10,624.9,524.9)" />
<use xlink:href="#f2_3" transform="matrix(10,0,0,10,638.2,524.9)" />
<use xlink:href="#f2_6" transform="matrix(10,0,0,10,645.8,524.9)" />
<use xlink:href="#f2_2" transform="matrix(10,0,0,10,653.4,524.9)" />
<use xlink:href="#f3_e" transform="matrix(7,0,0,7,675.2,577.3)" />
</g>
<text x="600" y="524" dx="0,0,0,0,0,1.3,0,0" class="s3">PHIL 251</text>
<g fill="#000000" >
<use xlink:href="#f3_e" transform="matrix(7,0,0,7,683.2,577.3)" />
<use xlink:href="#f3_2" transform="matrix(7,0,0,7,695,577.3)" />
<use xlink:href="#f3_6" transform="matrix(7,0,0,7,700.6,577.3)" />
<use xlink:href="#f3_1" transform="matrix(7,0,0,7,706.3,577.3)" />
</g>
<text x="675" y="577" dx="0,0,0,1.1,0,0" class="s4">HH 150</text>
<path d="M236.6,270.8H347.2V218.2H236.6v52.6Z" class="g2"/>
<path d="M232,266.3H351.8V222.8H232v43.5Z" class="g2"/>
<g fill="#B5D091" >
<use xlink:href="#f1_1" transform="matrix(10,0,0,10,236.6,266.3)" />
<use xlink:href="#f1_1" transform="matrix(10,0,0,10,236.6,222.8)" />
</g>
<text x="236" y="266" class="s2">✉</text>
<g fill="#B5D091" >
<use xlink:href="#f1_1" transform="matrix(10,0,0,10,347.2,266.3)" />
</g>
<text x="236" y="222" class="s2">✉</text>
<g fill="#B5D091" >
<use xlink:href="#f1_1" transform="matrix(10,0,0,10,347.2,222.8)" />
</g>
<text x="347" y="266" class="s2">✉</text>
<g fill="#000000" >
<use xlink:href="#f2_k" transform="matrix(10,0,0,10,236.4,232.6)" />
</g>
<text x="347" y="222" class="s2">✉</text>
<g fill="#000000" >
<use xlink:href="#f2_i" transform="matrix(10,0,0,10,246.1,232.6)" />
<use xlink:href="#f2_a" transform="matrix(10,0,0,10,259.4,232.6)" />
<use xlink:href="#f2_m" transform="matrix(10,0,0,10,268.3,232.6)" />
<use xlink:href="#f2_f" transform="matrix(10,0,0,10,278.6,232.6)" />
<use xlink:href="#f2_4" transform="matrix(10,0,0,10,294.5,232.6)" />
<use xlink:href="#f2_5" transform="matrix(10,0,0,10,302.1,232.6)" />
<use xlink:href="#f2_9" transform="matrix(10,0,0,10,309.7,232.6)" />
<use xlink:href="#f3_g" transform="matrix(7,0,0,7,304.7,252.5)" />
</g>
<text x="236" y="232" dx="0,0,0,-1.3,0,0,1.3,0,0" class="s3">PMATH 348</text>
<g fill="#000000" >
<use xlink:href="#f3_a" transform="matrix(7,0,0,7,314.5,252.5)" />
<use xlink:href="#f3_3" transform="matrix(7,0,0,7,325.5,252.5)" />
<use xlink:href="#f3_1" transform="matrix(7,0,0,7,331.2,252.5)" />
<use xlink:href="#f3_2" transform="matrix(7,0,0,7,336.9,252.5)" />
<use xlink:href="#f3_8" transform="matrix(7,0,0,7,342.5,252.5)" />
</g>
<text x="304" y="252" dx="0,0,0,1.1,0,0,0" class="s4">MC 2017</text>
<path d="M479.1,270.8H589.7V218.2H479.1v52.6Z" class="g2"/>
<path d="M474.5,266.3H594.3V222.8H474.5v43.5Z" class="g2"/>
<g fill="#B5D091" >
<use xlink:href="#f1_1" transform="matrix(10,0,0,10,479.1,266.3)" />
<use xlink:href="#f1_1" transform="matrix(10,0,0,10,479.1,222.8)" />
</g>
<text x="479" y="266" class="s2">✉</text>
<g fill="#B5D091" >
<use xlink:href="#f1_1" transform="matrix(10,0,0,10,589.7,266.3)" />
</g>
<text x="479" y="222" class="s2">✉</text>
<g fill="#B5D091" >
<use xlink:href="#f1_1" transform="matrix(10,0,0,10,589.7,222.8)" />
</g>
<text x="589" y="266" class="s2">✉</text>
<g fill="#000000" >
<use xlink:href="#f2_k" transform="matrix(10,0,0,10,478.9,232.6)" />
</g>
<text x="589" y="222" class="s2">✉</text>
<g fill="#000000" >
<use xlink:href="#f2_i" transform="matrix(10,0,0,10,488.6,232.6)" />
<use xlink:href="#f2_a" transform="matrix(10,0,0,10,501.9,232.6)" />
<use xlink:href="#f2_m" transform="matrix(10,0,0,10,510.8,232.6)" />
<use xlink:href="#f2_f" transform="matrix(10,0,0,10,521.2,232.6)" />
<use xlink:href="#f2_4" transform="matrix(10,0,0,10,537,232.6)" />
<use xlink:href="#f2_5" transform="matrix(10,0,0,10,544.6,232.6)" />
<use xlink:href="#f2_9" transform="matrix(10,0,0,10,552.2,232.6)" />
<use xlink:href="#f3_g" transform="matrix(7,0,0,7,547.2,252.5)" />
</g>
<text x="478" y="232" dx="0,0,0,-1.3,0,0,1.3,0,0" class="s3">PMATH 348</text>
<g fill="#000000" >
<use xlink:href="#f3_a" transform="matrix(7,0,0,7,557.1,252.5)" />
<use xlink:href="#f3_3" transform="matrix(7,0,0,7,568.1,252.5)" />
<use xlink:href="#f3_1" transform="matrix(7,0,0,7,573.7,252.5)" />
<use xlink:href="#f3_2" transform="matrix(7,0,0,7,579.4,252.5)" />
<use xlink:href="#f3_8" transform="matrix(7,0,0,7,585,252.5)" />
</g>
<text x="547" y="252" dx="0,0,0,1.1,0,0,0" class="s4">MC 2017</text>
<path d="M721.6,270.8H832.2V218.2H721.6v52.6Z" class="g2"/>
<path d="M717.1,266.3H836.8V222.8H717.1v43.5Z" class="g2"/>
<g fill="#B5D091" >
<use xlink:href="#f1_1" transform="matrix(10,0,0,10,721.6,266.3)" />
<use xlink:href="#f1_1" transform="matrix(10,0,0,10,721.6,222.8)" />
</g>
<text x="721" y="266" class="s2">✉</text>
<g fill="#B5D091" >
<use xlink:href="#f1_1" transform="matrix(10,0,0,10,832.2,266.3)" />
</g>
<text x="721" y="222" class="s2">✉</text>
<g fill="#B5D091" >
<use xlink:href="#f1_1" transform="matrix(10,0,0,10,832.2,222.8)" />
</g>
<text x="832" y="266" class="s2">✉</text>
<g fill="#000000" >
<use xlink:href="#f2_k" transform="matrix(10,0,0,10,721.4,232.6)" />
</g>
<text x="832" y="222" class="s2">✉</text>
<g fill="#000000" >
<use xlink:href="#f2_i" transform="matrix(10,0,0,10,731.1,232.6)" />
<use xlink:href="#f2_a" transform="matrix(10,0,0,10,744.4,232.6)" />
<use xlink:href="#f2_m" transform="matrix(10,0,0,10,753.3,232.6)" />
<use xlink:href="#f2_f" transform="matrix(10,0,0,10,763.7,232.6)" />
<use xlink:href="#f2_4" transform="matrix(10,0,0,10,779.5,232.6)" />
<use xlink:href="#f2_5" transform="matrix(10,0,0,10,787.1,232.6)" />
<use xlink:href="#f2_9" transform="matrix(10,0,0,10,794.7,232.6)" />
<use xlink:href="#f3_g" transform="matrix(7,0,0,7,789.7,252.5)" />
</g>
<text x="721" y="232" dx="0,0,0,-1.3,0,0,1.3,0,0" class="s3">PMATH 348</text>
<g fill="#000000" >
<use xlink:href="#f3_a" transform="matrix(7,0,0,7,799.6,252.5)" />
<use xlink:href="#f3_3" transform="matrix(7,0,0,7,810.6,252.5)" />
<use xlink:href="#f3_1" transform="matrix(7,0,0,7,816.2,252.5)" />
<use xlink:href="#f3_2" transform="matrix(7,0,0,7,821.9,252.5)" />
<use xlink:href="#f3_8" transform="matrix(7,0,0,7,827.6,252.5)" />
</g>
<text x="789" y="252" dx="0,0,0,1.1,0,0,0" class="s4">MC 2017</text>
<path d="M721.6,790.5H832.2V608H721.6V790.5Z" class="g2"/>
<path d="M717.1,786H836.8V612.6H717.1V786Z" class="g2"/>
<g fill="#B5D091" >
<use xlink:href="#f1_1" transform="matrix(10,0,0,10,721.6,786)" />
<use xlink:href="#f1_1" transform="matrix(10,0,0,10,721.6,612.6)" />
</g>
<text x="721" y="785" class="s2">✉</text>
<g fill="#B5D091" >
<use xlink:href="#f1_1" transform="matrix(10,0,0,10,832.2,786)" />
</g>
<text x="721" y="612" class="s2">✉</text>
<g fill="#B5D091" >
<use xlink:href="#f1_1" transform="matrix(10,0,0,10,832.2,612.6)" />
</g>
<text x="832" y="785" class="s2">✉</text>
<g fill="#000000" >
<use xlink:href="#f2_i" transform="matrix(10,0,0,10,721.4,622.4)" />
</g>
<text x="832" y="612" class="s2">✉</text>
<g fill="#000000" >
<use xlink:href="#f2_m" transform="matrix(10,0,0,10,734.7,622.4)" />
<use xlink:href="#f2_d" transform="matrix(10,0,0,10,745.1,622.4)" />
<use xlink:href="#f2_6" transform="matrix(10,0,0,10,759.2,622.4)" />
<use xlink:href="#f2_5" transform="matrix(10,0,0,10,766.8,622.4)" />
<use xlink:href="#f2_5" transform="matrix(10,0,0,10,774.4,622.4)" />
<use xlink:href="#f3_b" transform="matrix(7,0,0,7,807.9,772.2)" />
</g>
<text x="721" y="622" dx="0,0,0,0,1.3,0,0" class="s3">MTE 544</text>
<g fill="#000000" >
<use xlink:href="#f3_l" transform="matrix(7,0,0,7,815.7,772.2)" />
<use xlink:href="#f3_c" transform="matrix(7,0,0,7,826.4,772.2)" />
<use xlink:href="#f3_4" transform="matrix(7,0,0,7,810.6,781.3)" />
</g>
<text x="807" y="772" dx="0,-.3,0" class="s4">DWE</text>
<g fill="#000000" >
<use xlink:href="#f3_6" transform="matrix(7,0,0,7,816.2,781.3)" />
<use xlink:href="#f3_3" transform="matrix(7,0,0,7,821.9,781.3)" />
<use xlink:href="#f3_3" transform="matrix(7,0,0,7,827.6,781.3)" />
</g>
<text x="810" y="781" class="s4">3522</text>
<path d="M357.8,790.5H468.5V705.4H357.8v85.1Z" class="g2"/>
<path d="M353.3,786H473V710H353.3v76Z" class="g2"/>
<g fill="#B5D091" >
<use xlink:href="#f1_1" transform="matrix(10,0,0,10,357.8,786)" />
<use xlink:href="#f1_1" transform="matrix(10,0,0,10,357.8,710)" />
</g>
<text x="357" y="785" class="s2">✉</text>
<g fill="#B5D091" >
<use xlink:href="#f1_1" transform="matrix(10,0,0,10,468.5,786)" />
</g>
<text x="357" y="709" class="s2">✉</text>
<g fill="#B5D091" >
<use xlink:href="#f1_1" transform="matrix(10,0,0,10,468.5,710)" />
</g>
<text x="468" y="785" class="s2">✉</text>
<g fill="#000000" >
<use xlink:href="#f2_l" transform="matrix(10,0,0,10,357.6,719.8)" />
</g>
<text x="468" y="709" class="s2">✉</text>
<g fill="#000000" >
<use xlink:href="#f2_o" transform="matrix(10,0,0,10,366.1,719.8)" />
<use xlink:href="#f2_c" transform="matrix(10,0,0,10,376.2,719.8)" />
<use xlink:href="#f2_d" transform="matrix(10,0,0,10,387.2,719.8)" />
<use xlink:href="#f2_6" transform="matrix(10,0,0,10,401.4,719.8)" />
<use xlink:href="#f2_3" transform="matrix(10,0,0,10,409,719.8)" />
<use xlink:href="#f2_3" transform="matrix(10,0,0,10,416.6,719.8)" />
<use xlink:href="#f3_i" transform="matrix(7,0,0,7,448.2,772.2)" />
</g>
<text x="357" y="719" dx="0,0,0,0,0,1.3,0,0" class="s3">SYDE 522</text>
<g fill="#000000" >
<use xlink:href="#f3_j" transform="matrix(7,0,0,7,454.5,772.2)" />
<use xlink:href="#f3_a" transform="matrix(7,0,0,7,462.2,772.2)" />
<use xlink:href="#f3_1" transform="matrix(7,0,0,7,446.8,781.3)" />
</g>
<text x="448" y="772" class="s4">STC</text>
<g fill="#000000" >
<use xlink:href="#f3_1" transform="matrix(7,0,0,7,452.5,781.3)" />
<use xlink:href="#f3_5" transform="matrix(7,0,0,7,458.1,781.3)" />
<use xlink:href="#f3_1" transform="matrix(7,0,0,7,463.8,781.3)" />
</g>
<text x="446" y="781" class="s4">0040</text>
<path d="M600.4,790.5H711V705.4H600.4v85.1Z" class="g2"/>
<path d="M595.8,786H715.5V710H595.8v76Z" class="g2"/>
<g fill="#B5D091" >
<use xlink:href="#f1_1" transform="matrix(10,0,0,10,600.4,786)" />
<use xlink:href="#f1_1" transform="matrix(10,0,0,10,600.4,710)" />
</g>
<text x="600" y="785" class="s2">✉</text>
<g fill="#B5D091" >
<use xlink:href="#f1_1" transform="matrix(10,0,0,10,711,786)" />
</g>
<text x="600" y="709" class="s2">✉</text>
<g fill="#B5D091" >
<use xlink:href="#f1_1" transform="matrix(10,0,0,10,711,710)" />
</g>
<text x="710" y="785" class="s2">✉</text>
<g fill="#000000" >
<use xlink:href="#f2_l" transform="matrix(10,0,0,10,600.1,719.8)" />
</g>
<text x="710" y="709" class="s2">✉</text>
<g fill="#000000" >
<use xlink:href="#f2_o" transform="matrix(10,0,0,10,608.6,719.8)" />
<use xlink:href="#f2_c" transform="matrix(10,0,0,10,618.7,719.8)" />
<use xlink:href="#f2_d" transform="matrix(10,0,0,10,629.7,719.8)" />
<use xlink:href="#f2_6" transform="matrix(10,0,0,10,643.9,719.8)" />
<use xlink:href="#f2_3" transform="matrix(10,0,0,10,651.5,719.8)" />
<use xlink:href="#f2_3" transform="matrix(10,0,0,10,659.1,719.8)" />
<use xlink:href="#f3_i" transform="matrix(7,0,0,7,690.7,772.2)" />
</g>
<text x="600" y="719" dx="0,0,0,0,0,1.3,0,0" class="s3">SYDE 522</text>
<g fill="#000000" >
<use xlink:href="#f3_j" transform="matrix(7,0,0,7,697,772.2)" />
<use xlink:href="#f3_a" transform="matrix(7,0,0,7,704.7,772.2)" />
<use xlink:href="#f3_1" transform="matrix(7,0,0,7,689.3,781.3)" />
</g>
<text x="690" y="772" class="s4">STC</text>
<g fill="#000000" >
<use xlink:href="#f3_1" transform="matrix(7,0,0,7,695,781.3)" />
<use xlink:href="#f3_5" transform="matrix(7,0,0,7,700.7,781.3)" />
<use xlink:href="#f3_1" transform="matrix(7,0,0,7,706.3,781.3)" />
</g>
<text x="689" y="781" class="s4">0040</text>
<path d="M600.4,855.5H711V802.9H600.4v52.6Z" class="g2"/>
<path d="M595.8,850.9H715.5V807.4H595.8v43.5Z" class="g2"/>
<g fill="#B5D091" >
<use xlink:href="#f1_1" transform="matrix(10,0,0,10,600.4,850.9)" />
<use xlink:href="#f1_1" transform="matrix(10,0,0,10,600.4,807.4)" />
</g>
<text x="600" y="850" class="s2">✉</text>
<g fill="#B5D091" >
<use xlink:href="#f1_1" transform="matrix(10,0,0,10,711,850.9)" />
</g>
<text x="600" y="807" class="s2">✉</text>
<g fill="#B5D091" >
<use xlink:href="#f1_1" transform="matrix(10,0,0,10,711,807.4)" />
</g>
<text x="710" y="850" class="s2">✉</text>
<g fill="#000000" >
<use xlink:href="#f2_l" transform="matrix(10,0,0,10,600.1,817.2)" />
</g>
<text x="710" y="807" class="s2">✉</text>
<g fill="#000000" >
<use xlink:href="#f2_o" transform="matrix(10,0,0,10,608.6,817.2)" />
<use xlink:href="#f2_c" transform="matrix(10,0,0,10,618.7,817.2)" />
<use xlink:href="#f2_d" transform="matrix(10,0,0,10,629.7,817.2)" />
<use xlink:href="#f2_6" transform="matrix(10,0,0,10,643.9,817.2)" />
<use xlink:href="#f2_3" transform="matrix(10,0,0,10,651.5,817.2)" />
<use xlink:href="#f2_3" transform="matrix(10,0,0,10,659.1,817.2)" />
<use xlink:href="#f3_j" transform="matrix(5,0,0,5,671.8,817.2)" />
</g>
<text x="600" y="817" dx="0,0,0,0,0,1.3,0,0" class="s3">SYDE 522</text>
<g fill="#000000" >
<use xlink:href="#f3_k" transform="matrix(5,0,0,5,677.3,817.2)" />
<use xlink:href="#f3_j" transform="matrix(5,0,0,5,682.9,817.2)" />
<use xlink:href="#f3_i" transform="matrix(7,0,0,7,690.7,837.2)" />
</g>
<text x="671" y="817" class="s5">TUT</text>
<g fill="#000000" >
<use xlink:href="#f3_j" transform="matrix(7,0,0,7,697,837.2)" />
<use xlink:href="#f3_a" transform="matrix(7,0,0,7,704.7,837.2)" />
<use xlink:href="#f3_1" transform="matrix(7,0,0,7,689.3,846.3)" />
</g>
<text x="690" y="837" class="s4">STC</text>
<g fill="#000000" >
<use xlink:href="#f3_1" transform="matrix(7,0,0,7,695,846.3)" />
<use xlink:href="#f3_5" transform="matrix(7,0,0,7,700.7,846.3)" />
<use xlink:href="#f3_1" transform="matrix(7,0,0,7,706.3,846.3)" />
</g>
<text x="689" y="846" class="s4">0040</text>
<path d="M479.1,985.4H589.7V802.9H479.1V985.4Z" class="g2"/>
<path d="M474.5,980.8H594.3V807.4H474.5V980.8Z" class="g2"/>
<g fill="#B5D091" >
<use xlink:href="#f1_1" transform="matrix(10,0,0,10,479.1,980.8)" />
<use xlink:href="#f1_1" transform="matrix(10,0,0,10,479.1,807.4)" />
</g>
<text x="479" y="980" class="s2">✉</text>
<g fill="#B5D091" >
<use xlink:href="#f1_1" transform="matrix(10,0,0,10,589.7,980.8)" />
</g>
<text x="479" y="807" class="s2">✉</text>
<g fill="#B5D091" >
<use xlink:href="#f1_1" transform="matrix(10,0,0,10,589.7,807.4)" />
</g>
<text x="589" y="980" class="s2">✉</text>
<g fill="#000000" >
<use xlink:href="#f2_i" transform="matrix(10,0,0,10,478.9,817.2)" />
</g>
<text x="589" y="807" class="s2">✉</text>
<g fill="#000000" >
<use xlink:href="#f2_l" transform="matrix(10,0,0,10,492.2,817.2)" />
<use xlink:href="#f2_b" transform="matrix(10,0,0,10,500.6,817.2)" />
<use xlink:href="#f2_g" transform="matrix(10,0,0,10,510.4,817.2)" />
<use xlink:href="#f2_5" transform="matrix(10,0,0,10,519.7,817.2)" />
<use xlink:href="#f2_5" transform="matrix(10,0,0,10,527.3,817.2)" />
<use xlink:href="#f2_3" transform="matrix(10,0,0,10,534.9,817.2)" />
<use xlink:href="#f3_b" transform="matrix(7,0,0,7,548.9,967.1)" />
</g>
<text x="478" y="817" dx="0,0,0,0,0,1.3,0,0" class="s3">MSCI 442</text>
<g fill="#000000" >
<use xlink:href="#f3_a" transform="matrix(7,0,0,7,557.1,967.1)" />
<use xlink:href="#f3_2" transform="matrix(7,0,0,7,568.1,967.1)" />
<use xlink:href="#f3_4" transform="matrix(7,0,0,7,573.7,967.1)" />
<use xlink:href="#f3_6" transform="matrix(7,0,0,7,579.4,967.1)" />
<use xlink:href="#f3_1" transform="matrix(7,0,0,7,585,967.1)" />
</g>
<text x="548" y="967" dx="0,0,0,1.1,0,0,0" class="s4">DC 1350</text>
<path d="M357.8,1050.4H468.5V867.8H357.8v182.6Z" class="g2"/>
<path d="M353.3,1045.8H473V872.4H353.3v173.4Z" class="g2"/>
<g fill="#B5D091" >
<use xlink:href="#f1_1" transform="matrix(10,0,0,10,357.8,1045.8)" />
<use xlink:href="#f1_1" transform="matrix(10,0,0,10,357.8,872.4)" />
</g>
<text x="357" y="1045" class="s2">✉</text>
<g fill="#B5D091" >
<use xlink:href="#f1_1" transform="matrix(10,0,0,10,468.5,1045.8)" />
</g>
<text x="357" y="872" class="s2">✉</text>
<g fill="#B5D091" >
<use xlink:href="#f1_1" transform="matrix(10,0,0,10,468.5,872.4)" />
</g>
<text x="468" y="1045" class="s2">✉</text>
<g fill="#000000" >
<use xlink:href="#f2_l" transform="matrix(10,0,0,10,357.6,882.2)" />
</g>
<text x="468" y="872" class="s2">✉</text>
<g fill="#000000" >
<use xlink:href="#f2_i" transform="matrix(10,0,0,10,366.1,882.2)" />
<use xlink:href="#f2_e" transform="matrix(10,0,0,10,379.4,882.2)" />
<use xlink:href="#f2_3" transform="matrix(10,0,0,10,393.1,882.2)" />
<use xlink:href="#f2_2" transform="matrix(10,0,0,10,400.7,882.2)" />
<use xlink:href="#f2_2" transform="matrix(10,0,0,10,408.3,882.2)" />
<use xlink:href="#f3_i" transform="matrix(7,0,0,7,425.7,1032.1)" />
</g>
<text x="357" y="882" dx="0,0,0,0,1.3,0,0" class="s3">SMF 211</text>
<g fill="#000000" >
<use xlink:href="#f3_f" transform="matrix(7,0,0,7,432,1032.1)" />
<use xlink:href="#f3_3" transform="matrix(7,0,0,7,437.4,1032.1)" />
<use xlink:href="#f3_2" transform="matrix(7,0,0,7,446.8,1032.1)" />
<use xlink:href="#f3_1" transform="matrix(7,0,0,7,452.5,1032.1)" />
<use xlink:href="#f3_1" transform="matrix(7,0,0,7,458.1,1032.1)" />
<use xlink:href="#f3_3" transform="matrix(7,0,0,7,463.8,1032.1)" />
</g>
<text x="425" y="1032" dx="0,0,0,0,1.1,0,0,0" class="s4">SJ2 1002</text>
<path d="M721.6,400.8H832.2V348.1H721.6v52.7Z" class="g2"/>
<path d="M717.1,396.2H836.8V352.7H717.1v43.5Z" class="g2"/>
<g fill="#B5D091" >
<use xlink:href="#f1_1" transform="matrix(10,0,0,10,721.6,396.2)" />
<use xlink:href="#f1_1" transform="matrix(10,0,0,10,721.6,352.7)" />
</g>
<text x="721" y="396" class="s2">✉</text>
<g fill="#B5D091" >
<use xlink:href="#f1_1" transform="matrix(10,0,0,10,832.2,396.2)" />
</g>
<text x="721" y="352" class="s2">✉</text>
<g fill="#B5D091" >
<use xlink:href="#f1_1" transform="matrix(10,0,0,10,832.2,352.7)" />
</g>
<text x="832" y="396" class="s2">✉</text>
<g fill="#000000" >
<use xlink:href="#f2_b" transform="matrix(10,0,0,10,721.4,362.5)" />
</g>
<text x="832" y="352" class="s2">✉</text>
<g fill="#000000" >
<use xlink:href="#f2_f" transform="matrix(10,0,0,10,731.1,362.5)" />
<use xlink:href="#f2_d" transform="matrix(10,0,0,10,741.9,362.5)" />
<use xlink:href="#f2_i" transform="matrix(10,0,0,10,751,362.5)" />
<use xlink:href="#f2_2" transform="matrix(10,0,0,10,769.4,362.5)" />
<use xlink:href="#f2_3" transform="matrix(10,0,0,10,777,362.5)" />
<use xlink:href="#f2_1" transform="matrix(10,0,0,10,784.6,362.5)" />
<use xlink:href="#f3_j" transform="matrix(5,0,0,5,797.3,362.5)" />
</g>
<text x="721" y="362" dx="0,0,0,0,0,1.3,0,0" class="s3">CHEM 120</text>
<g fill="#000000" >
<use xlink:href="#f3_k" transform="matrix(5,0,0,5,802.8,362.5)" />
<use xlink:href="#f3_j" transform="matrix(5,0,0,5,808.4,362.5)" />
<use xlink:href="#f3_b" transform="matrix(7,0,0,7,791.4,382.5)" />
</g>
<text x="797" y="362" class="s5">TUT</text>
<g fill="#000000" >
<use xlink:href="#f3_a" transform="matrix(7,0,0,7,799.6,382.5)" />
<use xlink:href="#f3_2" transform="matrix(7,0,0,7,810.6,382.5)" />
<use xlink:href="#f3_4" transform="matrix(7,0,0,7,816.2,382.5)" />
<use xlink:href="#f3_6" transform="matrix(7,0,0,7,821.9,382.5)" />
<use xlink:href="#f3_2" transform="matrix(7,0,0,7,827.6,382.5)" />
</g>
<text x="791" y="382" dx="0,0,0,1.1,0,0,0" class="s4">DC 1351</text>
<path d="M229.7,184.1H839.1M230.5,1094.3V184.8M110,129.9H837.6M110.8,1094.3V130.7m727.5,963.6V129.2M110,1094.3H837.6" class="g3"/>

</g>
<defs>
<path d="M374,60c40,0,126,16,167,163c27,95,27,196,27,293c0,141,0,425,-195,425C310,941,243,904,206,796C179,709,179,616,179,516C179,373,179,60,374,60Zm-1,-91C269,-31,171,29,125,130C76,237,63,332,63,498c0,131,9,255,59,364c57,120,153,171,252,171c81,0,200,-35,266,-206C680,718,684,600,684,498C684,348,674,237,622,128C570,23,474,-31,373,-31Z"
id="f0_2"
transform="scale(0.001,-0.001)"/>

<path d="M374,60c97,0,190,68,190,217C564,435,458,495,373,495C293,495,183,440,183,277C183,133,272,60,374,60Zm0,527c115,0,185,76,185,178c0,112,-76,181,-186,181C270,946,188,882,188,765c0,-97,66,-178,186,-178ZM373,-31C199,-31,63,112,63,275c0,122,84,225,207,266C176,568,83,652,83,767c0,139,123,266,291,266c162,0,291,-122,291,-266C665,654,573,570,477,541C600,500,684,397,684,275C684,115,553,-31,373,-31Z"
id="f0_a"
transform="scale(0.001,-0.001)"/>

<path d="M145,0V124H269V0Zm0,555V678H269V555Z"
id="f0_c"
transform="scale(0.001,-0.001)"/>

<path d="M17,295v88H414V295Z"
id="f0_1"
transform="scale(0.001,-0.001)"/>

<path d="M364,391c126,0,192,121,192,237c0,11,0,26,-1,37c-3,74,-29,281,-176,281C296,946,255,897,232,863C186,794,185,730,185,663c0,-82,6,-127,35,-182c50,-90,118,-90,144,-90ZM307,-31c-67,0,-130,17,-199,69l48,81C197,79,244,60,307,60c141,0,240,151,252,365C501,353,416,299,304,299C165,299,64,466,64,663c0,87,14,168,87,255c54,64,118,115,228,115c134,0,304,-106,304,-521C683,177,501,-31,307,-31Z"
id="f0_b"
transform="scale(0.001,-0.001)"/>

<path d="M144,0V89H330V880C298,866,228,843,134,843v61c0,28,2,29,23,29c165,4,239,75,263,100h29V89H636V0Z"
id="f0_3"
transform="scale(0.001,-0.001)"/>

<path d="M75,0V96L416,435C518,536,550,625,550,704c0,132,-86,234,-217,234C220,938,163,863,125,700c-13,18,-13,21,-62,82c41,142,125,251,290,251c202,0,319,-156,319,-326C672,567,576,472,463,373C364,284,222,144,182,102H345c19,0,37,2,55,2H672V0Z"
id="f0_4"
transform="scale(0.001,-0.001)"/>

<path d="M371,-31C296,-31,162,-7,63,128l16,90C150,108,270,60,368,60c110,0,185,93,185,217c0,84,-38,218,-195,218H249v92c15,1,112,9,119,10c83,19,153,103,153,205c0,99,-73,144,-151,144C267,946,174,880,136,782L83,865c58,101,166,168,288,168c148,0,272,-100,272,-231C643,701,584,599,477,541C607,497,684,393,684,275C684,113,550,-31,371,-31Z"
id="f0_5"
transform="scale(0.001,-0.001)"/>

<path d="M445,354V932C445,875,345,688,327,652C263,530,203,432,159,354ZM437,0V263H41v91l379,647H558V354H706V263H558V0Z"
id="f0_6"
transform="scale(0.001,-0.001)"/>

<path d="M344,-31c-41,0,-185,8,-286,150l50,83C157,105,258,60,342,60c89,0,199,61,199,253c0,182,-81,246,-153,246C325,559,258,526,220,438H121v563H622V906H229V590c43,38,99,61,161,61C544,651,672,501,672,310C672,119,524,-31,344,-31Z"
id="f0_7"
transform="scale(0.001,-0.001)"/>

<path d="M376,60c75,0,113,39,140,81c46,68,46,134,46,197c0,59,-1,120,-35,181c-44,77,-93,91,-144,91C252,610,191,483,191,376c-2,-11,-2,-31,-2,-43C194,284,217,60,376,60Zm0,-91C255,-31,64,53,64,492c0,328,191,541,397,541c54,0,98,-8,161,-31V914c-44,16,-92,32,-158,32C313,946,205,804,188,578c56,68,142,123,255,123C582,701,683,535,683,339C683,229,662,157,593,75C533,5,468,-31,376,-31Z"
id="f0_8"
transform="scale(0.001,-0.001)"/>

<path d="M229,-14c0,500,264,805,356,912H402c-19,0,-37,-1,-55,-1H63v104H684V904C516,707,353,382,353,-14Z"
id="f0_9"
transform="scale(0.001,-0.001)"/>

<path d="M145,0V1060H319L552,435c24,-62,24,-65,51,-148c20,-59,40,-116,45,-142h1c16,70,75,231,155,445l174,470h174V0H1034V944h-1C1005,830,753,163,703,32H591C533,185,286,839,264,943h-1V0Z"
id="f0_e"
transform="scale(0.001,-0.001)"/>

<path d="M374,79c103,0,211,84,211,272C585,530,478,610,373,610C277,610,162,536,162,351C162,171,264,79,374,79Zm-1,-93C199,-14,46,136,46,336c0,203,148,365,328,365C550,701,701,542,701,336C701,139,553,-14,373,-14Z"
id="f0_n"
transform="scale(0.001,-0.001)"/>

<path d="M118,0V686H226V582c58,73,132,112,217,112C628,694,648,553,648,460V0H532V449c0,54,-5,153,-147,153C269,602,234,475,234,380V0Z"
id="f0_m"
transform="scale(0.001,-0.001)"/>

<path d="M373,76c67,0,120,39,157,104V521c-33,50,-82,81,-142,81C299,602,170,541,170,338C170,148,280,76,373,76ZM312,-14C167,-14,53,142,53,339c0,199,120,355,265,355c65,0,145,-22,215,-80v446H646V0H530V78C454,3,368,-14,312,-14Z"
id="f0_i"
transform="scale(0.001,-0.001)"/>

<path d="M315,76c23,0,75,5,116,31c50,31,50,67,50,98v99C388,304,176,281,176,177C176,121,232,76,315,76ZM237,-14C107,-14,67,108,67,176c0,76,60,133,162,168c92,30,184,35,252,38v63c0,111,-61,168,-131,168C261,613,191,585,124,536l-9,101c74,43,143,64,235,64C492,701,597,594,597,448V0H484V57C428,9,321,-14,237,-14Z"
id="f0_h"
transform="scale(0.001,-0.001)"/>

<path d="M168,-311c-49,0,-99,11,-108,13l-10,99c48,-18,97,-23,118,-23c28,0,50,8,84,84L306,0L21,678H142L251,411C263,380,344,179,351,89h2c6,110,124,409,194,589H662L342,-143C277,-311,205,-311,168,-311Z"
id="f0_r"
transform="scale(0.001,-0.001)"/>

<path d="M445,0V958H310c-18,0,-37,-2,-55,-2H53v97H966V956H765c-18,0,-36,2,-55,2H576V0Z"
id="f0_f"
transform="scale(0.001,-0.001)"/>

<path d="M278,-14C153,-14,118,60,118,170V678H234V176C234,108,244,69,351,69c100,0,181,56,181,172V678H648V0H535V76C442,-7,321,-14,278,-14Z"
id="f0_q"
transform="scale(0.001,-0.001)"/>

<path d="M532,426C506,588,400,610,353,610C263,610,191,529,165,426ZM374,-14C197,-14,50,142,50,344c0,198,138,357,303,357c44,0,151,-12,214,-117c49,-81,55,-175,55,-240H156C159,182,260,76,377,76c46,0,136,11,226,87c0,-6,4,-39,5,-41c0,-3,5,-50,5,-56C529,5,445,-14,374,-14Z"
id="f0_j"
transform="scale(0.001,-0.001)"/>

<path d="M293,-14C153,-14,49,47,41,52L60,156C142,96,231,79,292,79c21,0,140,0,140,106c0,81,-88,99,-139,110c-90,18,-128,26,-183,73C87,390,50,435,50,503c0,198,213,198,248,198c35,0,118,-1,215,-47L495,555c-67,38,-131,56,-212,56c-20,0,-127,0,-127,-95c0,-76,78,-91,133,-102c93,-18,139,-27,195,-86c6,-7,54,-56,54,-134C538,104,490,-14,293,-14Z"
id="f0_p"
transform="scale(0.001,-0.001)"/>

<path d="M321,0L21,1060H151L280,596L345,351c6,-26,45,-174,51,-233h1c11,99,103,432,113,469l132,473H772L952,403c26,-91,59,-223,67,-287h2c6,55,29,144,48,217l62,226l139,501h111L1082,0H947L781,605C709,866,698,944,698,946h-1C688,865,629,655,591,519L448,0Z"
id="f0_g"
transform="scale(0.001,-0.001)"/>

<path d="M118,0V1060H231V588c36,46,107,106,212,106C628,694,648,553,648,460V0H532V449c0,54,-5,153,-147,153C269,602,234,475,234,380V0Z"
id="f0_k"
transform="scale(0.001,-0.001)"/>

<path d="M119,0V686H225V552c41,59,122,140,261,142V591C348,590,232,489,232,335V0Z"
id="f0_o"
transform="scale(0.001,-0.001)"/>

<path d="M138,0V1057H785V961H521c-18,0,-37,2,-55,2H269V574H723V483H269V0Z"
id="f0_d"
transform="scale(0.001,-0.001)"/>

<path d="M119,0V678H232V0Zm-9,906v131H241V906Z"
id="f0_l"
transform="scale(0.001,-0.001)"/>

<path d="M0,-457c-251,0,-457,206,-457,457c0,252,206,458,457,458C252,458,458,252,458,0C458,-251,252,-457,0,-457Z"
id="f1_1"
transform="scale(0.001,-0.001)"/>

<path d="M153,0V1060H325L377,927L617,295c23,-64,41,-121,49,-153h2c16,72,88,261,142,400l198,518h175V0H1063V947l-1,2c-8,-35,-49,-145,-64,-190C987,729,973,691,924,565L721,34H610L383,628C344,732,283,898,273,947h-1V0Z"
id="f2_i"
transform="scale(0.001,-0.001)"/>

<path d="M529,-33C322,-33,144,133,144,356v704H280V354C280,148,405,52,530,52c128,0,257,101,257,302v706H906V356C906,134,733,-33,529,-33Z"
id="f2_n"
transform="scale(0.001,-0.001)"/>

<path d="M420,-33C324,-33,202,-11,67,72L90,196C218,87,356,72,419,72c139,0,223,101,223,201c0,66,-34,117,-64,143c-43,38,-59,42,-188,74C299,512,232,530,168,599C107,663,86,727,86,793c0,151,132,301,345,301c111,0,195,-26,279,-76L688,895c-57,48,-130,98,-259,98C289,993,206,901,206,811c0,-67,43,-111,54,-120c46,-40,70,-46,159,-68C559,588,610,574,681,498c34,-37,81,-110,81,-209C762,121,622,-33,420,-33Z"
id="f2_l"
transform="scale(0.001,-0.001)"/>

<path d="M144,0V1060H280V0Z"
id="f2_g"
transform="scale(0.001,-0.001)"/>

<path d="M889,174v0ZM600,-16C283,-16,101,277,101,518c0,321,217,559,499,559c98,0,216,-20,282,-52L860,900c-84,53,-153,79,-261,79C365,979,238,739,238,532C238,312,376,83,596,83c151,0,203,32,293,91L898,69C799,8,741,-16,600,-16Z"
id="f2_b"
transform="scale(0.001,-0.001)"/>

<path d="M76,0V98L266,287L383,396c91,91,178,178,178,308c0,119,-78,234,-222,234C200,938,157,819,127,701c-15,22,-31,42,-34,45c-3,4,-10,13,-29,39c37,132,122,251,297,251c201,0,325,-153,325,-329C686,578,603,497,535,428C506,400,428,336,399,309C351,264,235,150,186,107H353c18,0,37,1,55,1H686V0Z"
id="f2_3"
transform="scale(0.001,-0.001)"/>

<path d="M232,-16c0,357,136,662,362,911H409c-18,0,-36,-1,-55,-1H64v108H698V903C579,768,361,442,361,-16Z"
id="f2_8"
transform="scale(0.001,-0.001)"/>

<path d="M145,0V89H336V883C260,851,186,848,136,846v89c73,3,200,8,290,101h31V89H648V0Z"
id="f2_2"
transform="scale(0.001,-0.001)"/>

<path d="M642,-14C344,-14,104,217,104,532c0,295,226,545,529,545c111,0,197,-12,304,-52L912,886c-70,54,-174,86,-275,86C414,972,257,759,257,533C257,313,400,92,637,92c153,0,202,29,309,94L955,70C854,15,791,-14,642,-14Z"
id="f3_a"
transform="scale(0.001,-0.001)"/>

<path d="M636,-14C335,-14,104,234,104,532c0,305,232,547,541,547c116,0,209,-25,314,-75L935,865C859,929,770,972,629,972C399,972,257,741,257,532C257,313,402,92,637,92c69,0,135,13,202,30V356H631V457H973V60C875,9,746,-14,636,-14Z"
id="f3_d"
transform="scale(0.001,-0.001)"/>

<path d="M532,581c183,0,288,87,288,194C820,888,707,970,532,970H299V581ZM150,0V1060H552c221,0,407,-127,407,-285C959,692,904,559,686,495L1004,0H849L552,480H299V0Z"
id="f3_h"
transform="scale(0.001,-0.001)"/>

<path d="M150,0V96H353V872C277,842,200,839,141,837v96c91,4,217,10,316,101h33V96H694V0Z"
id="f3_2"
transform="scale(0.001,-0.001)"/>

<path d="M81,0V105c44,39,150,141,194,181c32,30,115,99,145,130c92,87,167,158,167,285c0,138,-98,228,-226,228C228,929,174,830,139,701L67,791c52,156,153,243,315,243c218,0,347,-157,347,-330C729,571,639,492,571,431C542,406,468,350,440,325L203,116H377c19,0,37,2,55,2H729V0Z"
id="f3_3"
transform="scale(0.001,-0.001)"/>

<path d="M405,69c50,0,128,24,171,134c37,98,37,213,37,313c0,141,0,417,-208,417C197,933,197,657,197,516c0,-111,2,-207,32,-301C267,105,341,69,405,69Zm0,-100C315,-31,202,5,134,128C70,244,64,383,64,497c0,96,3,262,77,385c76,131,195,152,264,152c73,0,191,-23,269,-160C746,749,746,570,746,497c0,-95,-5,-236,-58,-344C642,57,558,-31,405,-31Z"
id="f3_1"
transform="scale(0.001,-0.001)"/>

<path d="M405,69c104,0,198,67,198,211c0,136,-88,210,-198,210C295,490,206,417,206,280C206,136,299,69,405,69Zm0,522c111,0,197,66,197,174c0,98,-70,175,-197,175C277,940,208,863,208,765C208,654,296,591,405,591Zm0,-622C212,-31,67,115,67,278c0,118,86,222,220,263C189,571,90,652,90,767c0,139,133,267,315,267c182,0,315,-128,315,-267C720,654,623,573,523,541C655,500,743,396,743,278C743,115,597,-31,405,-31Z"
id="f3_9"
transform="scale(0.001,-0.001)"/>

<path d="M351,-33C228,-33,122,29,60,116l50,86C154,119,248,60,350,60c14,0,200,0,200,253c0,184,-82,246,-154,246C307,559,251,500,225,438H124v564H636V904H234V590c44,39,102,62,163,62C555,652,686,501,686,310C686,118,533,-33,351,-33Z"
id="f2_6"
transform="scale(0.001,-0.001)"/>

<path d="M383,60c88,0,127,52,153,94c37,63,37,133,37,185c0,69,-3,122,-35,179c-31,56,-74,95,-147,95C264,613,196,490,196,377c-2,-18,-2,-21,-2,-42C199,284,222,60,383,60Zm0,-93C254,-33,64,60,64,492c0,328,193,544,408,544c21,0,84,0,162,-31V915c-53,22,-102,32,-160,32C333,947,212,825,193,579c93,115,209,127,258,127C597,706,698,535,698,339C698,218,669,148,600,70C541,2,475,-33,383,-33Z"
id="f2_7"
transform="scale(0.001,-0.001)"/>

<path d="M382,60c49,0,130,24,170,163c27,96,27,193,27,293c0,95,0,197,-29,283C539,827,500,943,380,943C257,943,218,817,209,788C183,704,183,613,183,516c0,-119,2,-201,26,-288C240,118,303,60,382,60Zm-2,-93C293,-33,177,8,116,154C70,266,64,377,64,498c0,122,8,249,58,361c63,136,170,177,260,177c78,0,183,-37,246,-151C692,761,698,619,698,498C698,335,683,234,637,134C588,29,492,-33,380,-33Z"
id="f2_1"
transform="scale(0.001,-0.001)"/>

<path d="M562,66c174,0,339,186,339,484C901,823,738,996,561,996C390,996,222,830,222,550C222,257,382,66,562,66Zm-1,-99C312,-33,86,203,86,527c0,318,217,567,476,567c254,0,475,-246,475,-567C1037,206,816,-33,561,-33Z"
id="f2_j"
transform="scale(0.001,-0.001)"/>

<path d="M160,0V1060H347L610,411c15,-40,85,-215,96,-260h1c16,64,126,333,144,379l215,530h188V0H1126V940h-2C1098,856,993,596,993,594L765,32H645L390,666c-8,17,-87,219,-100,272h-1V0Z"
id="f3_g"
transform="scale(0.001,-0.001)"/>

<path d="M484,356V927C484,836,222,428,176,356ZM474,0V255H46V356l408,646H605V356H764V255H605V0Z"
id="f3_5"
transform="scale(0.001,-0.001)"/>

<path d="M408,69c70,0,116,30,153,85c41,64,41,129,41,187c0,52,0,266,-186,266C280,607,214,480,214,376c-2,-8,-2,-31,-2,-40C220,269,246,69,408,69Zm0,-100C254,-31,67,79,67,493c0,323,202,541,434,541c29,0,87,0,170,-30V908c-77,29,-138,32,-168,32C338,940,231,794,211,585c44,44,125,122,275,122C634,707,743,541,743,341C743,287,741,179,643,75C596,26,532,-31,408,-31Z"
id="f3_7"
transform="scale(0.001,-0.001)"/>

<path d="M399,-31C280,-31,156,20,67,119l20,99C163,121,287,69,396,69c119,0,192,91,192,211c0,96,-53,210,-198,210H270V591c101,8,107,8,115,9c116,20,171,120,171,201c0,87,-67,139,-157,139C325,940,215,906,153,784L90,872c64,92,176,162,310,162c164,0,297,-104,297,-233C697,701,637,599,521,539C642,504,743,403,743,278C743,118,599,-31,399,-31Z"
id="f3_4"
transform="scale(0.001,-0.001)"/>

<path d="M377,-33C316,-33,176,-17,64,125l17,92C148,113,269,60,374,60c118,0,188,97,188,217c0,76,-33,218,-198,218H255v93c109,9,112,9,121,11c93,21,156,111,156,205c0,97,-75,143,-155,143C284,947,185,892,141,785L86,868c64,107,175,168,293,168c151,0,278,-101,278,-232C657,707,603,603,487,541C591,509,698,414,698,275C698,115,564,-33,377,-33Z"
id="f2_4"
transform="scale(0.001,-0.001)"/>

<path d="M457,354V935C457,848,241,486,162,354ZM448,0V261H43v93l386,648H568V354H720V261H568V0Z"
id="f2_5"
transform="scale(0.001,-0.001)"/>

<path d="M244,-14c0,353,149,672,381,900H432c-18,0,-36,-1,-55,-1H67v117H743V895C605,752,388,431,388,-14Z"
id="f3_8"
transform="scale(0.001,-0.001)"/>

<path d="M477,0V944H333c-18,0,-37,-1,-55,-1H58v107h992V943H830c-19,0,-37,1,-55,1H631V0Z"
id="f3_j"
transform="scale(0.001,-0.001)"/>

<path d="M561,-31C341,-31,148,133,148,358v702H303V354C303,153,431,58,562,58c132,0,269,93,269,298v704H964V358C964,134,779,-31,561,-31Z"
id="f3_k"
transform="scale(0.001,-0.001)"/>

<path d="M493,530c176,0,272,101,272,222C765,882,662,975,493,975H278V530ZM147,0V1060H527c211,0,362,-145,362,-308C889,581,727,442,538,442H283V0Z"
id="f2_k"
transform="scale(0.001,-0.001)"/>

<path d="M144,0V1060H280V597H801v463H937V0H801V504H280V0Z"
id="f2_f"
transform="scale(0.001,-0.001)"/>

<path d="M443,0V425L5,1060H165L468,617c25,-36,25,-39,55,-87l93,145c10,17,18,29,26,40l236,345h135L574,423V0Z"
id="f2_o"
transform="scale(0.001,-0.001)"/>

<path d="M370,-31C249,-31,136,24,61,118l58,91C171,122,269,69,370,69c78,0,204,44,204,244c0,194,-94,237,-157,237C348,550,277,513,240,431H128v571H674V897H251V590c45,38,103,61,169,61C588,651,729,500,729,310C729,124,571,-31,370,-31Z"
id="f3_6"
transform="scale(0.001,-0.001)"/>

<path d="M684,397L545,790C510,891,500,929,497,950h-2C484,894,437,764,405,674L306,397ZM43,0L442,1060H576L975,0H834L718,312H273L156,0Z"
id="f2_a"
transform="scale(0.001,-0.001)"/>

<path d="M452,0V953H315c-19,0,-37,-1,-55,-1H55v99H984V952H779c-18,0,-36,1,-55,1H588V0Z"
id="f2_m"
transform="scale(0.001,-0.001)"/>

<path d="M542,90c202,0,388,148,388,433C930,804,752,970,542,970H299V90ZM150,0V1060H584c273,0,496,-240,496,-539C1080,232,859,0,584,0Z"
id="f3_b"
transform="scale(0.001,-0.001)"/>

<path d="M446,-31C275,-31,148,29,72,73L96,211C217,108,358,83,445,83c148,0,233,97,233,192c0,52,-24,95,-53,124c-44,46,-80,53,-208,84C322,506,252,521,185,584C110,654,90,727,90,790c0,147,136,302,367,302c113,0,200,-24,298,-74L730,880C652,946,571,982,455,982C307,982,222,894,222,808c0,-58,35,-93,55,-113c36,-35,85,-47,178,-69C573,599,643,582,707,519C738,487,810,417,810,293C810,122,658,-31,446,-31Z"
id="f3_i"
transform="scale(0.001,-0.001)"/>

<path d="M345,-31C251,-31,150,-7,67,32L90,157C121,125,186,70,295,70c186,0,186,132,186,164v826H631V228C631,50,507,-31,345,-31Z"
id="f3_f"
transform="scale(0.001,-0.001)"/>

<path d="M144,0V1060H280V98h74c136,0,272,1,408,3V0Z"
id="f2_h"
transform="scale(0.001,-0.001)"/>

<path d="M148,0V1060H303V602H842v458H996V0H842V501H303V0Z"
id="f3_e"
transform="scale(0.001,-0.001)"/>

<path d="M382,60c98,0,192,68,192,217C574,434,469,495,380,495C298,495,188,437,188,277C188,133,277,60,382,60Zm0,528c110,0,188,70,188,180c0,100,-69,179,-190,179C267,947,193,874,193,768C193,663,264,588,382,588ZM380,-33C205,-33,64,108,64,275c0,133,99,229,209,267C138,587,86,688,86,768c0,141,125,268,296,268c165,0,295,-124,295,-268C677,688,625,587,489,542C591,507,698,414,698,275C698,113,562,-33,380,-33Z"
id="f2_9"
transform="scale(0.001,-0.001)"/>

<path d="M144,0V1056H825V956H545c-18,0,-36,2,-55,2H280V596H784V503H280V107H599c18,0,37,1,55,1H846V0Z"
id="f2_d"
transform="scale(0.001,-0.001)"/>

<path d="M354,0L23,1060H168L310,599C315,582,428,217,437,124h1c11,98,112,426,129,478l142,458H837L990,568c3,-9,113,-368,122,-446h2c10,83,117,425,127,457l148,481h119L1176,0H1036L963,234L836,651c-28,90,-66,215,-75,287h-2C753,897,741,848,717,767L642,512L484,0Z"
id="f3_l"
transform="scale(0.001,-0.001)"/>

<path d="M148,0V1056H882V949H581c-19,0,-37,1,-55,1H303V599H836V498H303V116h79c128,0,257,3,385,3H904V0Z"
id="f3_c"
transform="scale(0.001,-0.001)"/>

<path d="M512,86c214,0,373,175,373,435C885,790,726,975,512,975H278V86ZM147,0V1060H547c263,0,469,-243,469,-539C1016,232,808,0,548,0Z"
id="f2_c"
transform="scale(0.001,-0.001)"/>

<path d="M144,0V1056H804V956H535c-19,0,-37,2,-55,2H280V574H741V481H280V0Z"
id="f2_e"
transform="scale(0.001,-0.001)"/>


</defs>

<!-- Any embedded fonts defined here -->
<style type="text/css" ><![CDATA[

@font-face {
	font-family: CMSS10_6;
	src: url("fonts/CMSS10_6.woff") format("woff");
}

@font-face {
	font-family: CMSS12_4;
	src: url("fonts/CMSS12_4.woff") format("woff");
}

@font-face {
	font-family: CMSS8_7;
	src: url("fonts/CMSS8_7.woff") format("woff");
}

@font-face {
	font-family: LCIRCLE10_5;
	src: url("fonts/LCIRCLE10_5.woff") format("woff");
}

]]></style>

</svg>
